<?xml version="1.0" encoding="utf-8"?>
<!-- Generator: Adobe Illustrator 16.0.0, SVG Export Plug-In . SVG Version: 6.00 Build 0)  -->
<!DOCTYPE svg PUBLIC "-//W3C//DTD SVG 1.1//EN" "http://www.w3.org/Graphics/SVG/1.1/DTD/svg11.dtd">
<svg version="1.1" id="Layer_1" xmlns="http://www.w3.org/2000/svg" xmlns:xlink="http://www.w3.org/1999/xlink" x="0px" y="0px"
	 width="959px" height="554.5px" viewBox="0 0 959 554.5" enable-background="new 0 0 959 554.5" xml:space="preserve">
<title>share_link</title>
<g>
	<title>background</title>
	<rect id="canvas_background" x="-94.983" y="-33.963" fill="none" width="1138.803" height="659.463"/>
</g>
<g>
	<title>Layer 1</title>
	<path id="svg_53"  opacity="0.1" stroke="#000000" stroke-width="5" stroke-miterlimit="10" enable-background="new    " d="
		M557.022,122.222c-46.05-1.51-89.909-15.241-131.761-30.232C383.411,76.998,341.9,60.317,296.954,52.359
		c-28.909-5.12-61.974-5.843-85.262,8.472c-22.419,13.801-29.663,37.56-33.555,59.63c-2.933,16.601-4.652,34.071,3.373,49.615
		c5.577,10.791,15.469,19.86,22.313,30.199c23.814,35.965,6.98,80.313-18.819,115.429c-12.097,16.478-26.147,32.205-35.489,49.725
		c-9.344,17.524-13.66,37.63-5.485,55.519c8.096,17.744,27.401,31.048,48.313,40.415c42.471,19.018,92.497,24.469,141.314,27.553
		c108.029,6.824,216.631,3.867,324.944,0.91c40.088-1.098,80.342-2.208,119.776-7.932c21.898-3.182,44.506-8.229,60.406-20.408
		c20.18-15.467,25.183-41.656,11.655-61.046c-22.685-32.522-85.382-40.604-101.257-75.516c-8.725-19.208,0.231-40.613,12.922-58.434
		c27.208-38.224,72.809-71.762,75.209-115.461c1.648-30.009-20.273-60.065-54.172-74.269
		c-35.523-14.886-84.795-13.012-110.994,11.627C645.123,113.731,597.684,123.49,557.022,122.222L557.022,122.222z"/>
	<path id="svg_2" class="animate-spin" fill="#6C63FF" d="M-312.858-271.179"/>
	<path id="svg_4" class="animate-spin" fill="#6762D9" d="M607.873,321.186c-0.271,0.941-0.553,1.879-0.847,2.813
		c-5.03,16.59-13.612,32.035-25.241,45.427c-2.965,3.446-6.122,6.742-9.468,9.875c-9.062,8.551-19.368,15.891-30.64,21.801
		l-93.519,49.447c-10.205,5.396-23.316,2.062-29.29-7.448c-5.97-9.51-2.536-21.592,7.669-26.989l93.518-49.445
		c0.278-0.146,0.558-0.296,0.823-0.445c21.755-11.529,37.764-30.424,44.707-52.758c0.308-0.932,0.586-1.868,0.858-2.813
		c0.821-2.9,1.49-5.813,2.007-8.738c3.842-21.193-0.572-43.061-12.459-61.726c-1.09-1.736-2.222-3.432-3.431-5.074
		c-27.761-39.589-83.173-53.681-128.175-32.595c-1.915,0.852-3.792,1.78-5.659,2.765L204.375,318.619
		c-47.532,24.252-64.297,79.807-37.441,124.082c0.487,0.806,0.99,1.605,1.505,2.396c5.97,9.513,2.537,21.594-7.669,26.992
		c-10.204,5.393-23.318,2.059-29.289-7.448c-40.345-62.092-19.047-142.011,47.575-178.502c1.22-0.671,2.456-1.32,3.698-1.955
		l214.355-113.34c66.434-36.767,153.23-16.375,193.869,45.545c6.646,10.124,11.788,21.015,15.287,32.375
		c1.463,4.339,2.666,8.743,3.607,13.195c3.64,16.711,3.684,33.879,0.131,50.516C609.398,315.393,608.687,318.295,607.873,321.186
		L607.873,321.186L607.873,321.186z"/>
	<g id="svg_4_1_">
		<path fill="#A3A3D8" class="animate-spin"  d="M819.461,105.916c0.322,0.924,0.632,1.852,0.934,2.786c5.454,16.455,7.352,34.021,5.573,51.668
			c-0.437,4.525-1.114,9.041-2.04,13.526c-2.471,12.212-6.66,24.152-12.462,35.48l-47.884,94.329
			c-5.225,10.292-17.861,15.129-28.227,10.805c-10.359-4.326-14.523-16.176-9.299-26.472l47.886-94.325
			c0.144-0.28,0.286-0.562,0.418-0.836c11.12-21.968,13.308-46.636,6.1-68.884c-0.287-0.94-0.601-1.866-0.921-2.793
			c-1.002-2.844-2.133-5.608-3.401-8.298c-9.083-19.528-25.3-34.848-45.772-43.242c-1.892-0.789-3.794-1.523-5.729-2.168
			c-45.51-16.334-98.906,4.11-123.512,47.289c-1.074,1.8-2.07,3.641-3.026,5.521L488.336,336.51
			c-24.848,47.223-6.504,102.279,40.969,122.963c0.863,0.378,1.734,0.74,2.609,1.093c10.362,4.326,14.525,16.179,9.302,26.473
			c-5.226,10.29-17.86,15.13-28.224,10.806c-68.768-27.46-97.454-105.035-64.072-173.266c0.611-1.251,1.246-2.495,1.896-3.732
			l109.76-216.208c33.07-68.347,115.742-101.744,184.65-74.592c11.267,4.438,21.749,10.369,31.159,17.633
			c3.697,2.701,7.219,5.604,10.558,8.699c12.611,11.556,22.546,25.555,29.237,41.196
			C817.366,100.303,818.459,103.085,819.461,105.916L819.461,105.916L819.461,105.916z"/>
	</g>
	<g id="svg_20_1_">
		<path fill="#A3A3D8" class="animate-spin" d="M444.566,428.959c-0.345-0.916-0.674-1.834-0.992-2.765c-5.779-16.328-8.031-33.833-6.62-51.485
			c0.345-4.525,0.936-9.047,1.771-13.543c2.229-12.237,6.188-24.236,11.762-35.656l46.041-95.076
			c5.023-10.374,17.579-15.442,28.037-11.314c10.462,4.125,14.869,15.88,9.843,26.257l-46.041,95.073
			c-0.137,0.282-0.273,0.567-0.397,0.844c-10.661,22.147-12.354,46.808-4.724,68.892c0.306,0.935,0.637,1.854,0.979,2.772
			c1.059,2.821,2.248,5.562,3.567,8.221c9.514,19.315,26.05,34.301,46.698,42.323c1.913,0.755,3.833,1.447,5.78,2.062
			c45.896,15.306,98.836-6.062,122.699-49.52c1.042-1.817,2.007-3.674,2.924-5.569l105.533-217.922
			c23.843-47.844,4.107-102.571-44.075-122.245c-0.681-0.278-1.362-0.549-2.052-0.812c-10.462-4.124-14.866-15.881-9.844-26.256
			c5.026-10.376,17.578-15.441,28.036-11.315c69.521,26.458,99.624,103.748,67.237,172.633c-0.463,0.983-0.938,1.961-1.421,2.931
			L703.775,425.413c-32.14,68.978-114.638,103.642-184.267,77.433c-11.019-4.146-21.325-9.707-30.647-16.539
			c-3.751-2.629-7.341-5.465-10.746-8.486c-12.848-11.312-23.071-25.103-30.099-40.587
			C446.774,434.522,445.625,431.771,444.566,428.959L444.566,428.959L444.566,428.959L444.566,428.959z"/>
	</g>
	<path id="svg_20" class="animate-spin" fill="#6762D9" d="M115.302,368.907c0.247-0.947,0.51-1.89,0.784-2.833c4.694-16.672,12.95-32.271,24.281-45.881
		c2.893-3.496,5.982-6.85,9.257-10.041c8.879-8.711,19.033-16.231,30.172-22.351l92.444-51.121
		c10.086-5.579,23.264-2.479,29.43,6.925c6.168,9.404,2.988,21.548-7.101,27.127l-92.442,51.123
		c-0.277,0.151-0.553,0.303-0.813,0.457c-21.481,11.947-37.083,31.116-43.586,53.56c-0.289,0.938-0.549,1.883-0.798,2.831
		c-0.764,2.916-1.371,5.84-1.826,8.773c-3.368,21.266,1.5,43.044,13.744,61.507c1.128,1.721,2.295,3.396,3.536,5.017
		c28.668,38.973,84.237,52.046,128.8,30.305c1.896-0.886,3.754-1.848,5.599-2.864L518.67,364.264
		c47.068-25.337,62.507-81.428,34.489-125.288c-0.397-0.618-0.799-1.232-1.208-1.845c-6.167-9.401-2.987-21.547,7.101-27.127
		c10.089-5.578,23.267-2.477,29.431,6.925c41.538,61.706,21.558,142.21-44.627,179.812c-0.942,0.535-1.896,1.062-2.85,1.574
		L329.113,515.491c-66.034,37.815-153.425,18.563-195.194-43.006c-6.608-9.74-11.82-20.229-15.5-31.186
		c-1.55-4.312-2.846-8.697-3.884-13.132c-3.973-16.648-4.375-33.813-1.184-50.518C113.896,374.727,114.547,371.811,115.302,368.907
		L115.302,368.907L115.302,368.907L115.302,368.907z"/>
</g>
</svg>
