<?xml version="1.0" encoding="utf-8"?>
<!-- Generator: Adobe Illustrator 16.0.0, SVG Export Plug-In . SVG Version: 6.00 Build 0)  -->
<!DOCTYPE svg PUBLIC "-//W3C//DTD SVG 1.1//EN" "http://www.w3.org/Graphics/SVG/1.1/DTD/svg11.dtd">
<svg version="1.1" id="Layer_1" xmlns="http://www.w3.org/2000/svg" xmlns:xlink="http://www.w3.org/1999/xlink" x="0px" y="0px"
	 width="959px" height="554.5px" viewBox="0 0 959 554.5" enable-background="new 0 0 959 554.5" xml:space="preserve">
<title>share_link</title>
<g>
	<title>background</title>
	<rect id="canvas_background" x="-94.983" y="-33.963" fill="none" width="1138.803" height="659.463"/>
</g>
<g>
	<title>Layer 1</title>
	<path id="svg_53" opacity="0.1" fill="#6C63FF" enable-background="new    " d="M586.022,122.222
		c-46.05-1.51-89.909-15.241-131.761-30.232C412.411,76.998,370.9,60.317,325.954,52.359c-28.909-5.12-61.974-5.843-85.262,8.472
		c-22.419,13.801-29.663,37.56-33.555,59.63c-2.932,16.601-4.652,34.071,3.373,49.615c5.578,10.791,15.469,19.86,22.313,30.199
		c23.814,35.965,6.98,80.313-18.819,115.429c-12.097,16.478-26.148,32.205-35.49,49.725c-9.343,17.524-13.66,37.63-5.485,55.518
		c8.096,17.744,27.401,31.048,48.312,40.415c42.471,19.018,92.497,24.469,141.315,27.553c108.029,6.824,216.631,3.867,324.944,0.91
		c40.088-1.097,80.342-2.208,119.776-7.932c21.899-3.181,44.506-8.229,60.407-20.408c20.179-15.466,25.182-41.656,11.655-61.045
		c-22.684-32.523-85.382-40.604-101.257-75.516c-8.725-19.208,0.232-40.613,12.922-58.434
		c27.208-38.224,72.809-71.762,75.209-115.461c1.649-30.009-20.273-60.065-54.172-74.269
		c-35.523-14.886-84.795-13.012-110.994,11.627C674.122,113.731,626.684,123.49,586.022,122.222L586.022,122.222z"/>
	<path id="svg_2" fill="#6C63FF" d="M-312.858-271.179"/>
	<path id="svg_4" fill="#444449" d="M607.872,321.186c-0.27,0.941-0.552,1.878-0.846,2.813c-5.03,16.59-13.612,32.035-25.241,45.427
		c-2.965,3.446-6.122,6.742-9.468,9.875c-9.062,8.551-19.368,15.89-30.64,21.8l-93.518,49.448
		c-10.205,5.396-23.317,2.061-29.29-7.448c-5.97-9.51-2.536-21.592,7.669-26.99l93.517-49.445c0.279-0.146,0.558-0.296,0.823-0.445
		c21.755-11.53,37.764-30.424,44.708-52.758c0.307-0.932,0.585-1.868,0.858-2.812c0.821-2.901,1.49-5.813,2.007-8.739
		c3.841-21.193-0.573-43.061-12.459-61.726c-1.09-1.736-2.222-3.432-3.431-5.074c-27.761-39.589-83.173-53.681-128.175-32.595
		c-1.915,0.852-3.792,1.78-5.659,2.765L204.375,318.619c-47.533,24.252-64.297,79.807-37.442,124.082
		c0.488,0.806,0.991,1.606,1.505,2.396c5.97,9.512,2.537,21.594-7.669,26.992c-10.204,5.393-23.318,2.059-29.289-7.448
		c-40.345-62.092-19.047-142.011,47.575-178.502c1.22-0.671,2.456-1.32,3.699-1.956l214.355-113.339
		c66.433-36.767,153.23-16.375,193.869,45.545c6.646,10.124,11.788,21.015,15.287,32.375c1.463,4.339,2.666,8.743,3.608,13.195
		c3.639,16.711,3.683,33.879,0.13,50.516C609.398,315.393,608.687,318.295,607.872,321.186L607.872,321.186L607.872,321.186z"/>
	<g id="svg_4_1_">
		<path fill="#A6A6B2" d="M819.46,105.916c0.323,0.924,0.632,1.852,0.934,2.786c5.454,16.455,7.352,34.021,5.573,51.668
			c-0.436,4.525-1.114,9.041-2.04,13.526c-2.47,12.212-6.66,24.152-12.462,35.48l-47.884,94.329
			c-5.224,10.292-17.861,15.129-28.226,10.805c-10.359-4.326-14.523-16.176-9.299-26.472l47.886-94.325
			c0.143-0.28,0.286-0.562,0.418-0.836c11.12-21.968,13.307-46.636,6.099-68.884c-0.287-0.94-0.6-1.866-0.921-2.793
			c-1.001-2.844-2.132-5.608-3.401-8.298c-9.083-19.528-25.3-34.848-45.772-43.242c-1.892-0.789-3.794-1.523-5.729-2.168
			c-45.51-16.334-98.906,4.11-123.512,47.289c-1.074,1.8-2.07,3.641-3.026,5.521L488.336,336.51
			c-24.848,47.223-6.505,102.279,40.968,122.963c0.864,0.377,1.735,0.74,2.61,1.092c10.362,4.327,14.525,16.179,9.301,26.473
			c-5.225,10.29-17.86,15.13-28.223,10.806c-68.768-27.46-97.454-105.036-64.073-173.266c0.612-1.251,1.246-2.495,1.896-3.732
			l109.76-216.208c33.07-68.347,115.742-101.744,184.65-74.592c11.267,4.438,21.749,10.369,31.159,17.633
			c3.697,2.701,7.219,5.604,10.558,8.699c12.611,11.556,22.546,25.555,29.237,41.196
			C817.366,100.303,818.459,103.085,819.46,105.916L819.46,105.916L819.46,105.916z"/>
	</g>
	<g id="svg_20_1_">
		<path fill="#A6A6B2" d="M444.566,428.959c-0.345-0.916-0.674-1.834-0.992-2.765c-5.78-16.328-8.032-33.833-6.62-51.485
			c0.344-4.525,0.935-9.047,1.771-13.543c2.23-12.237,6.188-24.236,11.762-35.656l46.041-95.076
			c5.023-10.374,17.579-15.442,28.037-11.314c10.462,4.125,14.869,15.88,9.843,26.257l-46.041,95.073
			c-0.137,0.283-0.274,0.568-0.398,0.844c-10.661,22.148-12.353,46.807-4.723,68.891c0.305,0.935,0.636,1.855,0.979,2.773
			c1.059,2.821,2.248,5.562,3.567,8.221c9.514,19.315,26.05,34.3,46.699,42.323c1.913,0.755,3.833,1.447,5.78,2.061
			c45.896,15.306,98.836-6.061,122.699-49.519c1.042-1.817,2.007-3.674,2.924-5.569l105.533-217.922
			c23.843-47.844,4.108-102.571-44.075-122.245c-0.681-0.278-1.362-0.549-2.052-0.812c-10.462-4.124-14.866-15.881-9.844-26.256
			c5.027-10.376,17.579-15.441,28.037-11.315c69.521,26.458,99.624,103.748,67.237,172.633c-0.463,0.983-0.937,1.961-1.421,2.931
			L703.775,425.413c-32.14,68.978-114.638,103.642-184.267,77.433c-11.018-4.147-21.325-9.707-30.647-16.539
			c-3.751-2.629-7.341-5.465-10.746-8.487c-12.848-11.311-23.072-25.102-30.099-40.587
			C446.774,434.523,445.624,431.771,444.566,428.959L444.566,428.959L444.566,428.959L444.566,428.959z"/>
	</g>
	<path id="svg_20" fill="#444449" d="M115.301,368.907c0.248-0.947,0.51-1.89,0.785-2.833c4.694-16.672,12.95-32.271,24.281-45.88
		c2.892-3.497,5.982-6.85,9.257-10.042c8.879-8.711,19.033-16.231,30.172-22.35l92.444-51.121
		c10.086-5.579,23.264-2.479,29.429,6.925c6.168,9.404,2.989,21.548-7.1,27.127l-92.442,51.122
		c-0.278,0.152-0.553,0.303-0.814,0.458c-21.481,11.947-37.083,31.116-43.586,53.559c-0.289,0.939-0.549,1.883-0.798,2.831
		c-0.763,2.916-1.371,5.84-1.826,8.773c-3.368,21.266,1.5,43.044,13.744,61.507c1.128,1.721,2.295,3.396,3.536,5.017
		c28.668,38.973,84.238,52.046,128.8,30.305c1.896-0.886,3.754-1.848,5.599-2.865l211.888-117.176
		c47.068-25.337,62.506-81.428,34.489-125.288c-0.398-0.618-0.799-1.232-1.208-1.845c-6.167-9.401-2.988-21.547,7.1-27.127
		c10.089-5.578,23.267-2.477,29.431,6.925c41.538,61.706,21.558,142.21-44.627,179.811c-0.942,0.536-1.896,1.062-2.85,1.575
		L329.113,515.491c-66.034,37.816-153.425,18.563-195.194-43.006c-6.609-9.74-11.821-20.228-15.5-31.185
		c-1.55-4.312-2.846-8.697-3.884-13.132c-3.973-16.648-4.375-33.813-1.184-50.517C113.896,374.727,114.547,371.81,115.301,368.907
		L115.301,368.907L115.301,368.907L115.301,368.907z"/>
</g>
</svg>
