<?xml version="1.0" encoding="utf-8"?>
<!-- Generator: Adobe Illustrator 16.0.0, SVG Export Plug-In . SVG Version: 6.00 Build 0)  -->
<!DOCTYPE svg PUBLIC "-//W3C//DTD SVG 1.1//EN" "http://www.w3.org/Graphics/SVG/1.1/DTD/svg11.dtd">
<svg version="1.1" id="b21613c9-2bf0-4d37-bef0-3b193d34fc5d"
	 xmlns="http://www.w3.org/2000/svg" xmlns:xlink="http://www.w3.org/1999/xlink" x="0px" y="0px" width="666px" height="655px"
	 viewBox="0 0 666 655" enable-background="new 0 0 666 655" xml:space="preserve">
<path opacity="0.2" enable-background="new    " d="M411.146,142.174h-174.51c-8.28,0.01-14.99,6.72-15,15v387.851l-2,0.609
	l-42.812,13.11c-4.225,1.288-8.694-1.088-9.989-5.312L39.496,137.484c-1.29-4.225,1.087-8.696,5.312-9.99l65.97-20.2l191.251-58.54
	l65.97-20.2c4.218-1.298,8.688,1.069,9.985,5.286c0.002,0.004,0.003,0.009,0.004,0.014l32.551,106.32L411.146,142.174z"/>
<path fill="#3F3D56" d="M449.226,140.174l-39.23-128.14c-2.742-8.976-12.242-14.027-21.219-11.284
	c-0.004,0.001-0.007,0.002-0.011,0.003l-92.75,28.39l-191.24,58.55l-92.75,28.4c-8.971,2.755-14.02,12.253-11.28,21.23
	l134.08,437.93c2.193,7.145,8.788,12.021,16.261,12.03c1.686,0,3.36-0.252,4.971-0.75l63.58-19.46l2-0.62v-2.09l-2,0.608
	l-64.17,19.65c-7.92,2.414-16.298-2.037-18.73-9.95L2.667,136.734c-2.432-7.908,2.01-16.289,9.916-18.72
	c0.012-0.003,0.022-0.007,0.033-0.01l92.75-28.4l191.24-58.54l92.751-28.4c1.429-0.437,2.915-0.659,4.409-0.66
	c6.583,0.015,12.39,4.316,14.32,10.61l39.05,127.56l0.62,2h2.079L449.226,140.174z"/>
<path fill="#6762D9" d="M122.681,127.821c-3.957-0.003-7.449-2.585-8.611-6.367l-12.881-42.072
	c-1.455-4.752,1.217-9.784,5.969-11.24c0.001,0,0.002,0,0.003,0l175.938-53.864c4.752-1.45,9.78,1.221,11.24,5.971l12.881,42.072
	c1.449,4.752-1.223,9.781-5.971,11.241L125.31,127.426C124.459,127.688,123.572,127.82,122.681,127.821z"/>
<circle fill="#6762D9" cx="190.154" cy="24.955" r="20"/>
<circle opacity="0.3" cx="190.154" cy="24.955" r="12.665"/>
<path opacity="0.2" enable-background="new    " d="M602.636,582.174h-338c-4.692-0.005-8.494-3.808-8.5-8.5v-405
	c0.005-4.692,3.808-8.495,8.5-8.5h338c4.691,0.005,8.495,3.808,8.5,8.5v405C611.132,578.366,607.329,582.168,602.636,582.174z"/>
<path fill="#3F3D56" d="M447.136,140.174h-210.5c-9.385,0.013-16.987,7.617-17,17v407.8l2-0.608v-407.19c0.01-8.28,6.72-14.99,15-15
	h211.12L447.136,140.174z M630.636,140.174h-394c-9.385,0.013-16.987,7.617-17,17v458c0.013,9.384,7.615,16.987,17,17h394
	c9.383-0.013,16.986-7.616,17-17v-458C647.623,147.791,640.019,140.187,630.636,140.174z M645.636,615.174
	c-0.01,8.28-6.721,14.99-15,15h-394c-8.28-0.01-14.99-6.72-15-15v-458c0.01-8.28,6.72-14.99,15-15h394c8.279,0.01,14.99,6.72,15,15
	V615.174z"/>
<path fill="#6762D9" d="M525.636,184.174h-184c-4.969-0.006-8.994-4.032-9-9v-44c0.006-4.968,4.031-8.994,9-9h184
	c4.969,0.006,8.994,4.032,9,9v44C534.632,180.142,530.605,184.168,525.636,184.174z"/>
<circle fill="#6762D9" cx="433.636" cy="105.174" r="20"/>
<circle opacity="0.3" cx="433.636" cy="105.174" r="12.182"/>
</svg>
