<svg width="625" height="436" xmlns="http://www.w3.org/2000/svg" xmlns:xlink="http://www.w3.org/1999/xlink">
    <g>
        <title>background</title>
        <rect fill="none" id="canvas_background" height="438" width="627" y="-1" x="-1"/>
    </g>
    <g>
        <title>Layer 1</title>
        <path stroke="null" id="svg_31" fill="#3f3d56" d="m579.1606,-0.00001l-534.51167,0a43.29688,30.39845 0 0 0 -43.24509,30.36146l0,375.27711a43.29688,30.39845 0 0 0 43.24509,30.36146l534.51167,0a43.27151,30.38064 0 0 0 43.24321,-30.36146l0,-375.27711a43.27155,30.38067 0 0 0 -43.24321,-30.36146zm35.71593,405.63856a35.74653,25.0974 0 0 1 -35.71593,25.07661l-534.51167,0a35.77179,25.11513 0 0 1 -35.71781,-25.07661l0,-375.27711a35.77179,25.11513 0 0 1 35.71781,-25.07661l534.51167,0a35.74653,25.0974 0 0 1 35.71593,25.07661l0,375.27711zm-412.57026,25.07661l-0.79036,5.28485l223.8243,0c0.63952,-1.79685 1.27903,-3.56727 1.9939,-5.28485l-225.02783,0z"/>
        <defs>
            <linearGradient id="svg_287" x1="0.5" y1="1" x2="0.5" y2="0.00004">
                <stop offset="0" stop-color="gray" stop-opacity="0.25"/>
                <stop offset="0.54" stop-color="gray" stop-opacity="0.12"/>
                <stop offset="1" stop-color="gray" stop-opacity="0.1"/>
            </linearGradient>
            <linearGradient id="svg_275" x1="385.08" y1="490.21" x2="385.08" y2="258.44" xlink:href="#svg_287"/>
            <linearGradient id="svg_255" x1="384.97" y1="232.29" x2="384.97" y2="0.51" xlink:href="#svg_287"/>
            <linearGradient id="svg_240" x1="661.23" y1="231.77" x2="661.23" y2="0" xlink:href="#svg_287"/>
            <linearGradient id="svg_224" x1="115.89" y1="482.62" x2="115.89" y2="250.85" xlink:href="#svg_287"/>
            <linearGradient id="svg_209" x1="665.55" y1="495.47" x2="665.55" y2="263.7" xlink:href="#svg_287"/>
            <linearGradient id="svg_191" x1="116.72" y1="743.15" x2="116.72" y2="511.38" xlink:href="#svg_287"/>
            <linearGradient id="svg_177" x1="392.03" y1="756.44" x2="392.03" y2="524.67" xlink:href="#svg_287"/>
        </defs>
        <g stroke="null" id="svg_292">
            <g stroke="null" transform="matrix(0.7554807840860167,0,0,0.55361733332429,-307.3553468549375,-2695.729336905011) " id="svg_290">
                <title transform="translate(-1.3236603736877441,7.225207328796387) " stroke="null">background</title>
                <rect stroke="null" x="405.51045" y="4896.03811" width="802" height="602" id="svg_288" fill="none"/>
            </g>
            <g stroke="null" transform="matrix(0.7554807840860167,0,0,0.55361733332429,-307.3553468549375,-2695.729336905011) " id="svg_291">
                <title transform="translate(-1.3236603736877441,7.225207328796387) " stroke="null">Layer 1</title>
                <g stroke="null" opacity="0.5" id="svg_285">
                    <circle stroke="null" cx="548.4434" cy="5004.74515" r="115.89" fill="url(#svg_287)" id="svg_286"/>
                </g>
                <circle stroke="null" cx="548.4434" cy="5004.11515" r="113.44" fill="#f5f5f5" id="svg_284"/>
                <path stroke="null" d="m548.7634,5117.87515a112.91,112.91 0 0 0 62.36,-18.66c-4.18,-22.84 -20.09,-24.15 -20.09,-24.15l-87.71,0s-15,1.23 -19.7,22.25a112.92,112.92 0 0 0 65.14,20.56z" fill="#6c63ff" id="svg_283"/>
                <circle stroke="null" cx="547.5734" cy="5001.61515" r="50.29" fill="#333" id="svg_282"/>
                <path stroke="null" d="m529.9034,5047.22515l35.09,0a0,0 0 0 1 0,0l0,28.07a17.54,17.54 0 0 1 -17.54,17.54l0,0a17.54,17.54 0 0 1 -17.54,-17.54l0,-28.07a0,0 0 0 1 -0.01,0z" opacity="0.1" id="svg_281"/>
                <path stroke="null" d="m533.2534,5045.92515l28.39,0a3.35,3.35 0 0 1 3.35,3.35l0,24.72a17.54,17.54 0 0 1 -17.54,17.54l0,0a17.54,17.54 0 0 1 -17.54,-17.54l0,-24.72a3.35,3.35 0 0 1 3.34,-3.35z" fill="#be7c5e" id="svg_280"/>
                <path stroke="null" d="m529.9734,5060.47515a50.5,50.5 0 0 0 35.09,0.1l0,-4.31l-35.09,0l0,4.21z" opacity="0.1" id="svg_279"/>
                <circle stroke="null" cx="547.5734" cy="5012.53515" r="50.29" fill="#be7c5e" id="svg_278"/>
                <path stroke="null" d="m517.1034,4991.79515c0.59,-2.17 1.33,-4.56 3.28,-5.69c1.54,-0.9 3.45,-0.76 5.23,-0.67c13.9,0.76 27.68,-2.41 41.2,-5.72c7.73,-1.89 16,-4.19 21,-10.42s-1.52,-25.81 -9.13,-28.12c-5,-1.53 -10.8,1.32 -15.54,-0.92c-2.11,-1 -3.66,-2.87 -5.48,-4.33c-3.73,-3 -8.52,-4.21 -13.16,-5.35c-5.42,-1.34 -11.28,-2.65 -16.43,-0.5c-4,1.66 -6.92,5.17 -10.71,7.25c-7.21,4 -16,2.14 -24.26,2.12c-2.79,0 -6.12,0.56 -7.23,3.12c-0.75,1.74 -0.15,3.72 -0.07,5.61c0.24,6 -4.71,10.67 -8.86,15s-8.07,10.51 -5.45,15.89c1,2.05 2.83,3.6 3.87,5.63c1.79,3.52 0.89,7.77 1.54,11.66a29.34,29.34 0 0 0 3.27,8.4c3.08,6 18.55,38.3 25.66,30.09c3.44,-4 4,-15.56 5.39,-20.76q2.88,-11.21 5.88,-22.29z" fill="#333" id="svg_277"/>
                <ellipse stroke="null" cx="511.7934" cy="5010.70515" rx="4.68" ry="8.77" fill="#be7c5e" id="svg_276"/>
                <g stroke="null" opacity="0.5" id="svg_273">
                    <circle stroke="null" cx="816.8034" cy="5256.97515" r="115.89" fill="url(#svg_275)" id="svg_274"/>
                </g>
                <circle stroke="null" cx="817.0234" cy="5256.23515" r="113.44" fill="#f5f5f5" id="svg_272"/>
                <path stroke="null" d="m817.1234,5370.12515a112.91,112.91 0 0 0 62.32,-18.66c-4.18,-22.84 -20.09,-24.15 -20.09,-24.15l-87.68,0s-15,1.23 -19.7,22.25a112.92,112.92 0 0 0 65.15,20.56z" fill="#6c63ff" id="svg_271"/>
                <circle stroke="null" cx="815.9234" cy="5253.84515" r="54.76" fill="#f55f44" id="svg_270"/>
                <path stroke="null" d="m798.2534,5299.45515l35.09,0a0,0 0 0 1 0,0l0,28.07a17.54,17.54 0 0 1 -17.54,17.54l0,0a17.54,17.54 0 0 1 -17.54,-17.54l0,-28.07a0,0 0 0 1 -0.01,0z" opacity="0.1" id="svg_269"/>
                <path stroke="null" d="m801.6034,5298.15515l28.39,0a3.35,3.35 0 0 1 3.35,3.35l0,24.72a17.54,17.54 0 0 1 -17.54,17.54l0,0a17.54,17.54 0 0 1 -17.54,-17.54l0,-24.72a3.35,3.35 0 0 1 3.35,-3.35l-0.01,0z" fill="#fda57d" id="svg_268"/>
                <path stroke="null" d="m798.3234,5312.70515a50.5,50.5 0 0 0 35.09,0.1l0,-4.31l-35.09,0l0,4.21z" opacity="0.1" id="svg_267"/>
                <circle stroke="null" cx="815.9234" cy="5264.76515" r="50.29" fill="#fda57d" id="svg_266"/>
                <circle stroke="null" cx="815.8534" cy="5198.14515" r="20.24" fill="#f55f44" id="svg_265"/>
                <circle stroke="null" cx="815.8534" cy="5178.21515" r="13.29" fill="#f55f44" id="svg_264"/>
                <path stroke="null" d="m807.0734,5209.24515a20.24,20.24 0 0 1 -10.55,-25.88c-0.14,0.28 -0.28,0.57 -0.41,0.86a20.24,20.24 0 1 0 36.94,16.57c0.13,-0.29 0.25,-0.58 0.37,-0.88a20.24,20.24 0 0 1 -26.35,9.33z" fill="#f55f44" id="svg_263"/>
                <path stroke="null" d="m780.1134,5219.02515s21.19,43 81,18l-13.92,-21.83l-24.67,-8.86l-42.41,12.69z" opacity="0.1" id="svg_262"/>
                <path stroke="null" d="m780.1134,5218.38515s21.19,43 81,18l-13.92,-21.83l-24.67,-8.86l-42.41,12.69z" fill="#f55f44" id="svg_261"/>
                <path stroke="null" d="m796.4434,5202.72515a249.85,249.85 0 0 1 39.18,0s-28.94,2.69 -39.18,0z" fill="#333" id="svg_260"/>
                <path stroke="null" d="m818.8934,5164.11515a13.32,13.32 0 0 0 -3,0.23l0.77,0a13.28,13.28 0 0 1 2,26.33a13.28,13.28 0 0 0 0.24,-26.56l-0.01,0z" fill="#f55f44" id="svg_259"/>
                <ellipse stroke="null" cx="765.6234" cy="5264.71515" rx="4.68" ry="8.77" fill="#fda57d" id="svg_258"/>
                <ellipse stroke="null" cx="866.2134" cy="5264.71515" rx="4.68" ry="8.77" fill="#fda57d" id="svg_257"/>
                <polygon stroke="null" points="776.943612575531,5219.655383110046 786.753182888031,5214.595324516296 788.963632106781,5222.705187797546 782.953378200531,5226.795519828796 776.943612575531,5219.655383110046 " fill="#f55f44" id="svg_256"/>
                <g stroke="null" opacity="0.5" id="svg_253">
                    <circle stroke="null" cx="816.6934" cy="4999.05515" r="115.89" fill="url(#svg_255)" id="svg_254"/>
                </g>
                <circle stroke="null" cx="816.6934" cy="4998.42515" r="113.44" fill="#f5f5f5" id="svg_252"/>
                <path stroke="null" d="m772.4434,4999.43515s-12.86,63.36 -19.88,59.85c0,0 67.7,58.48 127.48,0c0,0 -10.53,-44.65 -25.73,-59.85l-81.87,0z" fill="#333" id="svg_251"/>
                <path stroke="null" d="m817.0134,5112.20515a112.91,112.91 0 0 0 62.36,-18.66c-4.18,-22.84 -20.09,-24.15 -20.09,-24.15l-87.72,0s-15,1.23 -19.7,22.25a112.92,112.92 0 0 0 65.15,20.56z" fill="#6c63ff" id="svg_250"/>
                <circle stroke="null" cx="815.8134" cy="4995.92515" r="50.29" fill="#333" id="svg_249"/>
                <path stroke="null" d="m798.1434,5041.53515l35.09,0a0,0 0 0 1 0,0l0,28.07a17.54,17.54 0 0 1 -17.51,17.54l0,0a17.54,17.54 0 0 1 -17.54,-17.54l0,-28.07a0,0 0 0 1 -0.04,0z" opacity="0.1" id="svg_248"/>
                <path stroke="null" d="m801.4934,5040.23515l28.39,0a3.35,3.35 0 0 1 3.35,3.35l0,24.72a17.54,17.54 0 0 1 -17.51,17.54l0,0a17.54,17.54 0 0 1 -17.54,-17.54l0,-24.73a3.35,3.35 0 0 1 3.31,-3.34z" fill="#be7c5e" id="svg_247"/>
                <path stroke="null" d="m798.2134,5054.78515a50.5,50.5 0 0 0 35.09,0.1l0,-4.31l-35.09,0l0,4.21z" opacity="0.1" id="svg_246"/>
                <circle stroke="null" cx="815.8134" cy="5006.83515" r="50.29" fill="#be7c5e" id="svg_245"/>
                <path stroke="null" d="m767.7434,4987.73515l95.9,0s-8.19,-38.72 -44.44,-36.25s-51.46,36.25 -51.46,36.25z" fill="#333" id="svg_244"/>
                <ellipse stroke="null" cx="766.5634" cy="5004.69515" rx="4.68" ry="8.77" fill="#be7c5e" id="svg_243"/>
                <ellipse stroke="null" cx="864.8034" cy="5004.69515" rx="4.68" ry="8.77" fill="#be7c5e" id="svg_242"/>
                <path stroke="null" d="m767.7434,4989.03515l95.9,0s-8.19,-38.72 -44.44,-36.25s-51.46,36.25 -51.46,36.25z" opacity="0.1" id="svg_241"/>
                <g stroke="null" opacity="0.5" id="svg_238">
                    <circle stroke="null" cx="1092.9534" cy="4998.54515" r="115.89" fill="url(#svg_240)" id="svg_239"/>
                </g>
                <circle stroke="null" cx="1093.1734" cy="4997.79515" r="113.44" fill="#f5f5f5" id="svg_237"/>
                <path stroke="null" d="m1093.2734,5111.69515a112.91,112.91 0 0 0 62.36,-18.66c-4.19,-22.85 -20.09,-24.16 -20.09,-24.16l-87.71,0s-15,1.23 -19.7,22.25a112.92,112.92 0 0 0 65.14,20.57z" fill="#6c63ff" id="svg_236"/>
                <circle stroke="null" cx="1092.0834" cy="4995.40515" r="54.76" fill="#72351c" id="svg_235"/>
                <path stroke="null" d="m1074.4034,5041.01515l35.09,0a0,0 0 0 1 0,0l0,28.07a17.54,17.54 0 0 1 -17.54,17.57l0,0a17.54,17.54 0 0 1 -17.54,-17.54l0,-28.1a0,0 0 0 1 -0.01,0z" opacity="0.1" id="svg_234"/>
                <path stroke="null" d="m1077.7234,5039.71515l28.39,0a3.35,3.35 0 0 1 3.35,3.35l0,24.72a17.54,17.54 0 0 1 -17.54,17.54l0,0a17.54,17.54 0 0 1 -17.54,-17.54l0,-24.72a3.35,3.35 0 0 1 3.35,-3.35l-0.01,0z" fill="#fda57d" id="svg_233"/>
                <path stroke="null" d="m1074.4434,5054.26515a50.5,50.5 0 0 0 35.09,0.1l0,-4.31l-35.09,0l0,4.21z" opacity="0.1" id="svg_232"/>
                <circle stroke="null" cx="1092.0834" cy="5006.32515" r="50.29" fill="#fda57d" id="svg_231"/>
                <path stroke="null" d="m1056.2634,4960.58515s21.19,43 81,18l-13.92,-21.83l-24.67,-8.86l-42.41,12.69z" opacity="0.1" id="svg_230"/>
                <path stroke="null" d="m1056.2634,4959.95515s21.19,43 81,18l-13.92,-21.83l-24.67,-8.86l-42.41,12.69z" fill="#72351c" id="svg_229"/>
                <path stroke="null" d="m1056.0734,4957.04515a29.05,29.05 0 0 1 7.2,-11.71c9.89,-9.78 26.11,-11.84 34.43,-23a6.51,6.51 0 0 1 -3,9.18c8,-0.05 17.21,-0.75 21.71,-7.31a14.91,14.91 0 0 1 -2.51,15.74c7.06,0.32 14.6,5.11 15.06,12.17c0.3,4.7 -2.64,9.15 -6.51,11.85s-8.53,3.91 -13.13,4.91c-13.42,3 -62.01,15.41 -53.25,-11.83z" fill="#72351c" id="svg_228"/>
                <path stroke="null" d="m1142.3734,5006.76515l-1.33,0l-25.94,23.11c-25,-11.7 -43.34,0 -43.34,0l-27.2,-22.14l-2.74,0.34a50.29,50.29 0 0 0 100.56,-1.29l-0.01,-0.02zm-50.36,31.95c-9.78,0 -17.71,-2 -17.71,-4.43s7.93,-4.43 17.71,-4.43s17.71,2 17.71,4.43s-7.93,4.43 -17.72,4.43l0.01,0z" fill="#72351c" id="svg_227"/>
                <ellipse stroke="null" cx="1041.7734" cy="5006.27515" rx="4.68" ry="8.77" fill="#fda57d" id="svg_226"/>
                <ellipse stroke="null" cx="1142.3634" cy="5006.27515" rx="4.68" ry="8.77" fill="#fda57d" id="svg_225"/>
                <g stroke="null" opacity="0.5" id="svg_222">
                    <circle stroke="null" cx="547.6134" cy="5249.38515" r="115.89" fill="url(#svg_224)" id="svg_223"/>
                </g>
                <circle stroke="null" cx="547.8334" cy="5248.64515" r="113.44" fill="#f5f5f5" id="svg_221"/>
                <path stroke="null" d="m547.9334,5362.53515a112.91,112.91 0 0 0 62.35,-18.66c-4.18,-22.84 -20.09,-24.15 -20.09,-24.15l-87.75,0s-15,1.23 -19.7,22.25a112.92,112.92 0 0 0 65.19,20.56z" fill="#6c63ff" id="svg_220"/>
                <circle stroke="null" cx="546.7334" cy="5246.25515" r="54.76" fill="#333" id="svg_219"/>
                <path stroke="null" d="m529.0634,5291.86515l35.09,0a0,0 0 0 1 0,0l0,28.07a17.54,17.54 0 0 1 -17.54,17.54l0,0a17.54,17.54 0 0 1 -17.54,-17.54l0,-28.07a0,0 0 0 1 -0.01,0z" opacity="0.1" id="svg_218"/>
                <path stroke="null" d="m532.4134,5290.56515l28.39,0a3.35,3.35 0 0 1 3.35,3.35l0,24.74a17.54,17.54 0 0 1 -17.54,17.54l0,0a17.54,17.54 0 0 1 -17.55,-17.54l0,-24.75a3.35,3.35 0 0 1 3.35,-3.35l0,0.01z" fill="#fdb797" id="svg_217"/>
                <path stroke="null" d="m529.1334,5305.11515a50.5,50.5 0 0 0 35.09,0.1l0,-4.34l-35.09,0l0,4.24z" opacity="0.1" id="svg_216"/>
                <circle stroke="null" cx="546.7334" cy="5257.17515" r="50.29" fill="#fdb797" id="svg_215"/>
                <path stroke="null" d="m510.9234,5211.42515s21.19,43 81,18l-13.92,-21.83l-24.67,-8.86l-42.41,12.69z" opacity="0.1" id="svg_214"/>
                <path stroke="null" d="m510.9234,5210.79515s21.19,43 81,18l-13.92,-21.83l-24.67,-8.86l-42.41,12.69z" fill="#333" id="svg_213"/>
                <path stroke="null" d="m510.7334,5207.87515a29.05,29.05 0 0 1 7.2,-11.71c9.89,-9.78 26.11,-11.84 34.43,-23a6.51,6.51 0 0 1 -3,9.18c8,-0.05 17.21,-0.75 21.71,-7.31a14.91,14.91 0 0 1 -2.51,15.74c7.06,0.32 14.6,5.11 15.06,12.17c0.3,4.7 -2.64,9.15 -6.51,11.85s-8.54,3.93 -13.14,4.95c-13.42,2.98 -62,15.39 -53.24,-11.87z" fill="#333" id="svg_212"/>
                <ellipse stroke="null" cx="496.4234" cy="5257.12515" rx="4.68" ry="8.77" fill="#fdb797" id="svg_211"/>
                <ellipse stroke="null" cx="597.0134" cy="5257.12515" rx="4.68" ry="8.77" fill="#fdb797" id="svg_210"/>
                <g stroke="null" opacity="0.5" id="svg_207">
                    <circle stroke="null" cx="1097.2734" cy="5262.23515" r="115.89" fill="url(#svg_209)" id="svg_208"/>
                </g>
                <circle stroke="null" cx="1097.2734" cy="5261.60515" r="113.44" fill="#f5f5f5" id="svg_206"/>
                <path stroke="null" d="m1097.5934,5375.38515a112.91,112.91 0 0 0 62.36,-18.66c-4.18,-22.84 -20.09,-24.15 -20.09,-24.15l-87.72,0s-15,1.23 -19.7,22.25a112.92,112.92 0 0 0 65.15,20.56z" fill="#6c63ff" id="svg_205"/>
                <path stroke="null" d="m1078.7234,5304.71515l35.09,0a0,0 0 0 1 0,0l0,28.07a17.54,17.54 0 0 1 -17.54,17.54l0,0a17.54,17.54 0 0 1 -17.55,-17.54l0,-28.07a0,0 0 0 1 0,0z" opacity="0.1" id="svg_204"/>
                <path stroke="null" d="m1082.0734,5303.41515l28.39,0a3.35,3.35 0 0 1 3.35,3.35l0,24.72a17.54,17.54 0 0 1 -17.54,17.54l0,0a17.54,17.54 0 0 1 -17.55,-17.54l0,-24.72a3.35,3.35 0 0 1 3.35,-3.35z" fill="#fdb797" id="svg_203"/>
                <path stroke="null" d="m1078.7934,5317.96515a50.5,50.5 0 0 0 35.09,0.1l0,-4.31l-35.09,0l0,4.21z" opacity="0.1" id="svg_202"/>
                <circle stroke="null" cx="1096.3934" cy="5270.02515" r="50.29" fill="#fdb797" id="svg_201"/>
                <ellipse stroke="null" cx="1047.1434" cy="5267.87515" rx="4.68" ry="8.77" fill="#fdb797" id="svg_200"/>
                <ellipse stroke="null" cx="1145.3834" cy="5267.87515" rx="4.68" ry="8.77" fill="#fdb797" id="svg_199"/>
                <rect stroke="#333" x="1065.7534" y="5270.26515" width="21.51" height="10.76" rx="4.35" ry="4.35" fill="none" stroke-miterlimit="10" stroke-width="2" id="svg_198"/>
                <rect stroke="#333" x="2893.24344" y="6199.79515" width="21.51" height="10.76" rx="4.35" ry="4.35" transform="rotate(180 2010.1434326171875,5740.40478515625) " fill="none" stroke-miterlimit="10" stroke-width="2" id="svg_197"/>
                <path stroke="#333" d="m1086.4434,5271.30515s6.82,-3.7 19.5,0" fill="none" stroke-miterlimit="10" stroke-width="2" id="svg_196"/>
                <path stroke="null" d="m1131.1634,5233.57515l12.34,28.67s15.09,-19.02 -12.34,-28.67z" fill="#858585" id="svg_195"/>
                <line stroke="#333" x1="1127.0434" y1="5275.64515" x2="1145.4634" y2="5259.19515" fill="none" stroke-linecap="round" stroke-linejoin="round" stroke-width="2" id="svg_194"/>
                <path stroke="null" d="m1061.6434,5233.57515l-12.34,28.67s-15.09,-19.02 12.34,-28.67z" fill="#858585" id="svg_193"/>
                <line stroke="#333" x1="1065.7534" y1="5275.64515" x2="1047.0834" y2="5259.19515" fill="none" stroke-linecap="round" stroke-linejoin="round" stroke-width="2" id="svg_192"/>
                <g stroke="null" opacity="0.5" id="svg_189">
                    <circle stroke="null" cx="548.4434" cy="5509.91515" r="115.89" fill="url(#svg_191)" id="svg_190"/>
                </g>
                <circle stroke="null" cx="548.4434" cy="5509.28515" r="113.44" fill="#f5f5f5" id="svg_188"/>
                <path stroke="null" d="m611.1934,5519.48515c0,41.78 -27.26,88.29 -60.89,88.29s-60.86,-46.51 -60.86,-88.29s27.26,-63 60.89,-63s60.86,21.23 60.86,63z" fill="#fdd835" id="svg_187"/>
                <path stroke="null" d="m548.7634,5623.07515a112.91,112.91 0 0 0 62.36,-18.66c-4.18,-22.84 -20.09,-24.15 -20.09,-24.15l-87.71,0s-15,1.23 -19.7,22.25a112.92,112.92 0 0 0 65.14,20.56z" fill="#6c63ff" id="svg_186"/>
                <path stroke="null" d="m529.9034,5552.39515l35.09,0a0,0 0 0 1 0,0l0,28.07a17.54,17.54 0 0 1 -17.54,17.54l0,0a17.54,17.54 0 0 1 -17.54,-17.54l0,-28.07a0,0 0 0 1 -0.01,0z" opacity="0.1" id="svg_185"/>
                <path stroke="null" d="m533.2534,5551.09515l28.39,0a3.35,3.35 0 0 1 3.35,3.35l0,24.72a17.54,17.54 0 0 1 -17.54,17.54l0,0a17.54,17.54 0 0 1 -17.54,-17.54l0,-24.72a3.35,3.35 0 0 1 3.34,-3.35z" fill="#fdb797" id="svg_184"/>
                <path stroke="null" d="m529.9734,5565.64515a50.5,50.5 0 0 0 35.09,0.1l0,-4.31l-35.09,0l0,4.21z" opacity="0.1" id="svg_183"/>
                <circle stroke="null" cx="547.5734" cy="5517.70515" r="50.29" fill="#fdb797" id="svg_182"/>
                <ellipse stroke="null" cx="498.3234" cy="5515.55515" rx="4.68" ry="8.77" fill="#fdb797" id="svg_181"/>
                <ellipse stroke="null" cx="596.5634" cy="5515.55515" rx="4.68" ry="8.77" fill="#fdb797" id="svg_180"/>
                <path stroke="null" d="m503.0134,5490.42515s28.43,38.91 93.63,25.62c0,0 7.28,-8.86 -10.44,-36.06s-67.06,-22.77 -83.19,10.44z" opacity="0.1" id="svg_179"/>
                <path stroke="null" d="m503.0134,5489.79515s28.43,38.91 93.63,25.62c0,0 7.28,-8.86 -10.44,-36.06s-67.06,-22.77 -83.19,10.44z" fill="#fdd835" id="svg_178"/>
                <g stroke="null" opacity="0.5" id="svg_175">
                    <circle stroke="null" cx="823.7534" cy="5523.20515" r="115.89" fill="url(#svg_177)" id="svg_176"/>
                </g>
                <circle stroke="null" cx="823.9834" cy="5522.46515" r="113.44" fill="#f5f5f5" id="svg_174"/>
                <path stroke="null" d="m886.3934,5533.64515c0,37.74 -27.11,56.31 -62.32,56.31s-65.16,-18.57 -65.16,-56.31s28.54,-68.33 63.74,-68.33s63.74,30.56 63.74,68.33z" fill="#333" id="svg_173"/>
                <path stroke="null" d="m824.0734,5636.35515a112.91,112.91 0 0 0 62.37,-18.66c-4.18,-22.84 -20.09,-24.15 -20.09,-24.15l-87.72,0s-15,1.23 -19.7,22.25a112.92,112.92 0 0 0 65.14,20.56z" fill="#6c63ff" id="svg_172"/>
                <path stroke="null" d="m805.2134,5565.65515l35.09,0a0,0 0 0 1 0,0l0,28.07a17.54,17.54 0 0 1 -17.58,17.57l0,0a17.54,17.54 0 0 1 -17.54,-17.54l0,-28.1a0,0 0 0 1 0.03,0z" opacity="0.1" id="svg_171"/>
                <path stroke="null" d="m808.5534,5564.38515l28.39,0a3.35,3.35 0 0 1 3.35,3.35l0,24.72a17.54,17.54 0 0 1 -17.57,17.54l0,0a17.54,17.54 0 0 1 -17.54,-17.54l0,-24.73a3.35,3.35 0 0 1 3.35,-3.35l0.02,0.01z" fill="#fda57d" id="svg_170"/>
                <path stroke="null" d="m805.2834,5578.93515a50.5,50.5 0 0 0 35.09,0.1l0,-4.31l-35.09,0l0,4.21z" opacity="0.1" id="svg_169"/>
                <circle stroke="null" cx="822.8834" cy="5530.98515" r="50.29" fill="#fda57d" id="svg_168"/>
                <path stroke="null" d="m764.9234,5534.27515s31.32,-3.8 55,-34.16c0,0 31.32,34.48 53.14,30.68c0,0 12.65,-13.29 0,-26.57s-22.46,-30.05 -39.22,-27.84s-37.33,3.16 -46.18,11.07s-22.74,46.82 -22.74,46.82z" opacity="0.1" id="svg_167"/>
                <path stroke="null" d="m764.9234,5533.64515s31.32,-3.8 55,-34.16c0,0 31.32,34.48 53.14,30.68c0,0 12.65,-13.29 0,-26.57s-22.46,-30.05 -39.22,-27.84s-37.29,3.12 -46.14,11.12s-22.78,46.77 -22.78,46.77z" fill="#333" id="svg_166"/>
                <ellipse stroke="null" cx="772.5734" cy="5530.94515" rx="4.68" ry="8.77" fill="#fda57d" id="svg_165"/>
                <ellipse stroke="null" cx="873.1634" cy="5530.94515" rx="4.68" ry="8.77" fill="#fda57d" id="svg_164"/>
            </g>
        </g>
    </g>
</svg>