<?xml version="1.0" encoding="utf-8"?>
<!-- Generator: Adobe Illustrator 16.0.0, SVG Export Plug-In . SVG Version: 6.00 Build 0)  -->
<!DOCTYPE svg PUBLIC "-//W3C//DTD SVG 1.1//EN" "http://www.w3.org/Graphics/SVG/1.1/DTD/svg11.dtd">
<svg version="1.1" id="eb846191-07fb-429d-a36d-4b9eed5e0368"
     xmlns="http://www.w3.org/2000/svg" xmlns:xlink="http://www.w3.org/1999/xlink" x="0px" y="0px" width="973.564px"
     height="651.813px" viewBox="0 0 973.564 651.813" enable-background="new 0 0 973.564 651.813" xml:space="preserve">
<g display="none">
	<path display="inline" opacity="0.1" fill="#6C63FF" enable-background="new    " d="M12.832,341.004
		C29.1,400.431,63.537,451.801,117.96,476.702c113.104,51.746,368.181,25.059,558.553-5.607
		c96.19-15.439,183.511-58.104,247.891-121.119L12.832,341.004z"/>
    <path display="inline" opacity="0.1" fill="#6C63FF" enable-background="new    " d="M1011.122,61.3H906.674
		c-4.988,0-9.027-3.455-9.027-7.717c0-4.262,4.039-7.717,9.027-7.717h18.056c-4.985,0-9.027-3.455-9.027-7.716
		c0-4.263,4.042-7.717,9.027-7.717h-12.896c-4.984,0-9.022-3.454-9.022-7.716c0-4.262,4.037-7.717,9.022-7.717h54.521
		c-12.096-4.805-26.236-8.225-42.521-10.02C775.177-11.342,722.1-0.545,703.376,10.586c-23.098,13.695-48.861,23.771-76.401,28.625
		c-91.724,16.169-263.25,35.632-418.72-6.231c-77.27-20.824-134.699,14.352-169.115,73.106h990.12
		c-1.294-17.075-5.163-32.838-12.271-46.645C1015.356,60.642,1013.276,61.301,1011.122,61.3z"/>
    <path display="inline" opacity="0.1" fill="#6C63FF" enable-background="new    " d="M3.968,216.986
		c-4.013,34.56-2.647,69.423,4.052,103.677l917.076,28.662c25.523-25.097,46.964-53.037,63.721-83.051L3.968,216.986z
		 M366.682,290.951H348.62c4.988,0,9.031,3.452,9.031,7.716c0,4.26-4.043,7.716-9.031,7.716H244.17
		c-4.982,0-9.025-3.456-9.025-7.716c0-4.264,4.043-7.716,9.025-7.716h18.06c-4.984,0-9.027-3.457-9.027-7.717
		c0-4.262,4.043-7.719,9.027-7.719l0,0h-12.896c-4.983,0-9.024-3.454-9.024-7.716c0-4.261,4.041-7.716,9.024-7.716l0,0h104.453
		c4.986,0,9.029,3.455,9.029,7.716c0,4.263-4.042,7.716-9.029,7.716h12.896c4.984,0,9.028,3.457,9.028,7.719
		C375.715,287.494,371.672,290.951,366.682,290.951z"/>
    <path display="inline" opacity="0.1" fill="#6C63FF" enable-background="new    " d="M1029.302,106.615L28.068,127.437
		c-12.171,26.751-20.201,57-23.949,88.364H1011.76c6.577-18.419,11.439-37.253,14.552-56.327
		C1029.31,141.037,1030.511,123.217,1029.302,106.615z M207.384,174.819h-18.058c4.984,0,9.027,3.455,9.027,7.717
		c0,4.262-4.043,7.716-9.027,7.716H84.872c-4.982,0-9.029-3.454-9.029-7.716c0-4.262,4.047-7.717,9.029-7.717h18.062
		c-4.986,0-9.03-3.455-9.03-7.717s4.044-7.717,9.03-7.717H90.035c-4.986,0-9.029-3.455-9.029-7.717c0-4.261,4.043-7.716,9.029-7.716
		h104.453c4.986,0,9.028,3.455,9.028,7.716c0,4.263-4.042,7.717-9.028,7.717h12.896c4.986,0,9.028,3.455,9.028,7.717
		S212.369,174.819,207.384,174.819z"/>
</g>
    <g>
	<g>
		<path id="stand_stand" opacity="0.3" fill="#6C63FF" enable-background="new    " d="M455.728,568.948
			c248.473,0,449.897,15.643,449.897,34.932c0,19.297-201.43,34.939-449.897,34.939c-248.475,0-449.898-15.643-449.898-34.939
			C5.83,584.59,207.256,568.948,455.728,568.948z"/>
        <path id="svg_29" fill="none" stroke="#3F3D56" stroke-width="12" stroke-miterlimit="10" d="M508.926,575.596l0.298-14.988
			c14.109-0.805,28.229-1.342,42.343-1.607c8.193-0.15,16.492-0.205,24.421,1.852c5.494,1.436,10.692,3.85,16.112,5.533
			c10.798,3.367,22.229,3.814,33.563,4.119c11,0.314,22.486,0.414,32.361-4.438c17.097-8.477,24.285-29.271,25.121-48.314
			s-2.953-38.236-0.318-57.164"/>
        <polygon id="arm_stand" fill="#9B9B9B" points="547.623,604.928 358.994,602.518 359.549,597.678 368.674,517.872
			534.317,517.872 546.513,597.678 547.445,603.723 		"/>
        <rect id="svg_32" x="327.556" y="598.887" fill="#D0D2D5" width="250.301" height="6.041"/>
        <path id="svg_33" fill="#3F3D56" d="M816.663,38.545c0.076-8.694-6.905-15.802-15.604-15.879c-0.021,0-0.042,0-0.064,0H101.991
			c-8.699,0.047-15.714,7.137-15.667,15.835c0,0.015,0,0.029,0,0.044v423.709h730.338L816.663,38.545L816.663,38.545z"/>
        <path id="svg_34" fill="#D0D2D5" d="M86.325,458.018v49.641c0,8.65,7.014,15.664,15.667,15.664h699.003
			c8.653,0,15.669-7.014,15.669-15.664v-49.641H86.325L86.325,458.018z"/>
        <rect id="svg_35" x="116.559" y="49.321" fill="#2F2E41" width="673.502" height="380.891"/>
        <path id="svg_36" fill="#6762D9" d="M455.13,504.495c5.009,0,9.738-2.301,12.841-6.238l0,0c0.465-0.594,0.89-1.219,1.27-1.871
			l-8.956-1.475l9.688,0.076c1.878-4.084,1.985-8.77,0.308-12.938l-12.988,6.742l11.982-8.807
			c-4.409-7.863-14.358-10.664-22.222-6.262c-7.864,4.406-10.664,14.357-6.255,22.227c0.447,0.811,0.973,1.576,1.556,2.297l0,0
			C445.427,502.174,450.135,504.475,455.13,504.495L455.13,504.495z"/>
	</g>
        <g>
		<g>
			<rect x="145.235" y="63.401" fill="#FFFFFF" stroke="#CECECE" stroke-miterlimit="10" width="466.583" height="267.467"/>
            <rect x="145.235" y="131.091" fill="#F3F4F6" stroke="#CECECE" stroke-miterlimit="10" width="466.583" height="198.568"/>
		</g>
            <g>
			<rect x="153.927" y="72.853" fill="#6862D9" fill-opacity="0.3" width="273.1" height="27.522"/>
                <rect x="153.927" y="146.69" fill="#6862D9" fill-opacity="0.3" width="266.75" height="16.638"/>
                <rect x="153.927" y="171.85" fill="#6862D9" fill-opacity="0.3" width="314.384" height="16.637"/>
                <rect x="153.929" y="201.1" fill="#6862D9" fill-opacity="0.3" width="199.266" height="16.639"/>
                <rect x="153.927" y="230.375" fill="#6862D9" fill-opacity="0.3" width="440.605" height="16.639"/>
                <rect x="153.929" y="259.087" fill="#6862D9" fill-opacity="0.3" width="120.671" height="16.64"/>
                <rect x="153.929" y="288.427" fill="#6862D9" fill-opacity="0.3" width="297.707" height="16.64"/>
                <rect x="153.927" y="107.785" fill="#6862D9" fill-opacity="0.3" width="192.124" height="13.76"/>
		</g>
	</g>
        <g>
		<g>
			<rect x="172.49" y="104.091" fill="#FFFFFF" stroke="#CECECE" stroke-miterlimit="10" width="466.58" height="267.469"/>
            <rect x="172.49" y="171.781" fill="#F3F4F6" stroke="#CECECE" stroke-miterlimit="10" width="466.58" height="198.566"/>
		</g>
            <g>
			<rect x="181.181" y="113.543" fill="#6862D9" fill-opacity="0.3" width="273.101" height="27.522"/>
                <rect x="181.181" y="187.38" fill="#6862D9" fill-opacity="0.3" width="266.75" height="16.638"/>
                <rect x="181.181" y="212.541" fill="#6862D9" fill-opacity="0.3" width="314.383" height="16.637"/>
                <rect x="181.182" y="241.791" fill="#6862D9" fill-opacity="0.3" width="199.266" height="16.638"/>
                <rect x="181.181" y="271.064" fill="#6862D9" fill-opacity="0.3" width="440.612" height="16.64"/>
                <rect x="181.182" y="299.778" fill="#6862D9" fill-opacity="0.3" width="120.672" height="16.638"/>
                <rect x="181.182" y="329.12" fill="#6862D9" fill-opacity="0.3" width="297.71" height="16.639"/>
                <rect x="181.181" y="148.475" fill="#6862D9" fill-opacity="0.3" width="192.124" height="13.76"/>
		</g>
	</g>
        <g>
		<g>
			<rect x="281.017" y="145.273" fill="#FFFFFF" stroke="#CECECE" stroke-miterlimit="10" width="466.582" height="267.47"/>
            <rect x="281.017" y="212.961" fill="#F3F4F6" stroke="#CECECE" stroke-miterlimit="10" width="466.582" height="198.567"/>
		</g>
            <g>
			<rect x="289.71" y="231.447" fill="none" width="454.515" height="16.638"/>
                <rect x="289.711" y="267.407" fill="none" width="454.514" height="16.64"/>
                <rect x="289.71" y="303.925" fill="none" width="454.515" height="16.638"/>
                <rect x="289.711" y="337.438" fill="none" width="454.514" height="16.641"/>
                <rect x="289.711" y="370.299" fill="none" width="454.514" height="16.641"/>
                <rect x="290.477" y="155.355" fill="#2D2D2D" width="188.415" height="24.813"/>
		</g>
	</g>
</g>
    <g>
	<g>
		<path opacity="0.3" fill="#6C63FF" enable-background="new    " d="M618.694,622.842c29.994,10.084,66.588,3.951,100.617,4.66
			c4.66,0.1,9.589,0.389,13.327,2.129c3.737,1.74,5.575,4.578,8.14,6.98c9.535,8.986,29.07,11.885,46.15,10.354
			c17.078-1.521,32.74-6.574,48.82-10.42c27.854-6.65,59.707-9.674,87.184-2.426c2.525,0.664,5.18,1.428,7.881,1.168
			c6.026-0.596,7.818-5.418,12.029-8.17c7.628-4.979,24.129-3.625,27.461-10.178c1.961-3.814-2.547-7.779-7.452-10.404
			c-18.781-10.039-45.647-11.695-70.226-10.146c-24.579,1.553-48.745,5.82-73.453,5.836c-30.779,0-60.522-6.553-91.006-9.234
			c-21.114-1.859-44.158-1.631-63.955,3.813C642.815,602.774,638.089,616.077,618.694,622.842z"/>
        <g>
			<path fill="#3F3D56" d="M896.6,308.158h-2.245v-61.501c0-19.658-15.937-35.595-35.595-35.595l0,0H728.467
				c-19.658,0-35.6,15.936-35.6,35.595l0,0v337.396c0,19.66,15.938,35.598,35.599,35.598c0,0,0,0,0.001,0H858.76
				c19.658,0,35.595-15.938,35.595-35.598l0,0V351.935h2.245V308.158z"/>
            <path opacity="0.2" enable-background="new    " d="M860.197,220.322h-17.009c2.635,6.458-0.467,13.83-6.924,16.463
				c-1.514,0.618-3.134,0.936-4.771,0.936h-74.646c-6.978,0-12.629-5.655-12.628-12.63c0.001-1.635,0.314-3.255,0.936-4.769H729.27
				c-14.681,0-26.581,11.901-26.581,26.582v336.903c0,14.68,11.9,26.58,26.581,26.58l0,0h130.926c14.685,0,26.581-11.9,26.581-26.58
				l0,0V246.904C886.778,232.224,874.881,220.322,860.197,220.322L860.197,220.322z"/>
		</g>
	</g>
        <g>
		<g>
			<rect x="711.792" y="248.58" fill="#374151" width="165.888" height="163.415"/>
		</g>
            <g>
			<rect x="714.885" y="258.032" fill="#DCE7EB" fill-opacity="0.3" width="157.846" height="27.522"/>
                <rect x="714.885" y="296.343" fill="#DCE7EB" fill-opacity="0.3" width="145.846" height="16.638"/>
                <rect x="714.885" y="321.503" fill="#DCE7EB" fill-opacity="0.3" width="157.846" height="16.638"/>
                <rect x="714.885" y="350.752" fill="#DCE7EB" fill-opacity="0.3" width="145.846" height="16.641"/>
                <rect x="716.137" y="379.411" fill="#DCE7EB" fill-opacity="0.3" width="109.591" height="16.639"/>
		</g>
	</g>
        <g>
		<g>
			<rect x="711.792" y="421.786" fill="#374151" width="165.888" height="163.416"/>
		</g>
            <g>
			<rect x="714.885" y="431.239" fill="#DCE7EB" fill-opacity="0.3" width="157.846" height="27.521"/>
                <rect x="714.885" y="469.549" fill="#DCE7EB" fill-opacity="0.3" width="145.846" height="16.637"/>
                <rect x="714.885" y="494.708" fill="#DCE7EB" fill-opacity="0.3" width="157.846" height="16.639"/>
                <rect x="714.885" y="523.958" fill="#DCE7EB" fill-opacity="0.3" width="145.846" height="16.641"/>
                <rect x="716.137" y="552.618" fill="#DCE7EB" fill-opacity="0.3" width="109.591" height="16.639"/>
		</g>
	</g>
        <g>
		<g>
			<rect x="711.797" y="592.686" fill="#374151" width="165.884" height="18.445"/>
		</g>
            <g>
			<rect x="714.885" y="602.137" fill="#DCE7EB" fill-opacity="0.3" width="157.846" height="8.994"/>
		</g>
	</g>
        <path id="phone_shadow" fill="#3F3D56" d="M911.849,100.773"/>
</g>
    <path fill="#3F3D56" d="M886.969,584.112c-0.138,14.564-11.979,26.334-26.575,26.334H729.469c-14.603,0-26.441-11.77-26.575-26.334
	h-9.828c0,19.658,15.938,35.596,35.594,35.596c0,0,0,0,0.001,0H858.96c19.657,0,35.599-15.938,35.599-35.596H886.969z"/>
    <rect x="290.477" y="212.961" fill="none" width="453.744" height="12.13"/>
    <g>
	<path fill="#AC190F" d="M657.461,239.825c0,4.183-3.601,7.605-8,7.605h-26.392c-4.399,0-8-3.422-8-7.605
		c0-4.183,3.601-7.604,8-7.604h26.392C653.86,232.22,657.461,235.643,657.461,239.825z"/>
</g>
    <g>
	<path fill="#62A756" d="M657.461,275.727c0,4.183-3.601,7.604-8,7.604h-26.392c-4.399,0-8-3.422-8-7.604s3.601-7.604,8-7.604
		h26.392C653.86,268.123,657.461,271.544,657.461,275.727z"/>
</g>
    <g>
	<path fill="#005391" d="M657.461,312.244c0,4.183-3.601,7.604-8,7.604h-26.392c-4.399,0-8-3.422-8-7.604
		c0-4.182,3.601-7.604,8-7.604h26.392C653.862,304.639,657.461,308.061,657.461,312.244z"/>
</g>
    <g>
	<path fill="#005391" d="M657.461,346.849c0,4.183-3.601,7.604-8,7.604h-26.392c-4.399,0-8-3.422-8-7.604s3.601-7.604,8-7.604
		h26.392C653.862,339.245,657.461,342.667,657.461,346.849z"/>
</g>
    <g>
	<path fill="#674DA4" d="M657.461,378.62c0,4.186-3.601,7.604-8,7.604h-26.392c-4.399,0-8-3.423-8-7.604
		c0-4.181,3.601-7.604,8-7.604h26.392C653.862,371.015,657.461,374.437,657.461,378.62z"/>
</g>
    <rect x="308.575" y="233.604" fill="#2D2D2D" width="103.806" height="11.042"/>
    <rect x="308.781" y="270.206" fill="#2D2D2D" width="82.828" height="11.042"/>
    <rect x="308.881" y="306.723" fill="#2D2D2D" width="94.208" height="11.042"/>
    <rect x="309.047" y="340.238" fill="#2D2D2D" width="142.804" height="11.041"/>
    <rect x="308.427" y="373.099" fill="#2D2D2D" width="130.2" height="11.041"/>
    <circle fill="#D17589" cx="297.977" cy="239.125" r="7.5"/>
    <circle fill="#CCCB66" cx="297.977" cy="275.727" r="7.5"/>
    <circle fill="#2E5E8C" cx="297.977" cy="312.244" r="7.5"/>
    <circle fill="#A838A1" cx="297.977" cy="345.758" r="7.5"/>
    <circle fill="#D3997C" cx="297.977" cy="378.62" r="7.5"/>
    <circle fill="#D17589" cx="297.977" cy="197.134" r="7.5"/>
    <circle fill="#CCCB66" cx="304.977" cy="197.134" r="7.5"/>
    <circle fill="#2E5E8C" cx="311.977" cy="197.134" r="7.5"/>
    <circle fill="#A838A1" cx="318.477" cy="197.134" r="7.5"/>
    <circle fill="#D3997C" cx="325.977" cy="197.134" r="7.5"/>
</svg>
