<?xml version="1.0" encoding="utf-8"?>
<!-- Generator: Adobe Illustrator 16.0.0, SVG Export Plug-In . SVG Version: 6.00 Build 0)  -->
<!DOCTYPE svg PUBLIC "-//W3C//DTD SVG 1.1//EN" "http://www.w3.org/Graphics/SVG/1.1/DTD/svg11.dtd">
<svg version="1.1" id="eb846191-07fb-429d-a36d-4b9eed5e0368"
     xmlns="http://www.w3.org/2000/svg" xmlns:xlink="http://www.w3.org/1999/xlink" x="0px" y="0px" width="973.565px"
     height="651.813px" viewBox="0 0 973.565 651.813" enable-background="new 0 0 973.565 651.813" xml:space="preserve">
<g display="none">
	<path display="inline" opacity="0.1" fill="#6C63FF" enable-background="new    " d="M12.832,341.004
		c16.266,59.427,50.705,110.797,105.128,135.697c113.102,51.746,368.177,25.059,558.549-5.606
		c96.195-15.443,183.511-58.106,247.891-121.121L12.832,341.004z"/>
    <path display="inline" opacity="0.1" fill="#6C63FF" enable-background="new    " d="M1011.123,61.3H906.67
		c-4.988,0-9.027-3.455-9.027-7.717c0-4.262,4.039-7.717,9.027-7.717h18.056c-4.985,0-9.027-3.455-9.027-7.716
		c0-4.263,4.042-7.717,9.027-7.717h-12.893c-4.988,0-9.026-3.454-9.026-7.716S906.844,15,911.833,15h54.517
		c-12.096-4.805-26.236-8.225-42.521-10.02c-148.655-16.322-201.73-5.525-220.453,5.606c-23.098,13.695-48.866,23.771-76.406,28.625
		C535.25,55.38,363.721,74.843,208.255,32.98c-77.27-20.824-134.703,14.352-169.119,73.106h990.12
		c-1.294-17.075-5.163-32.838-12.266-46.645C1015.356,60.642,1013.276,61.301,1011.123,61.3z"/>
    <path display="inline" opacity="0.1" fill="#6C63FF" enable-background="new    " d="M3.968,216.986
		c-4.013,34.56-2.651,69.423,4.048,103.677l917.076,28.662c25.528-25.097,46.964-53.037,63.721-83.051L3.968,216.986z
		 M366.682,290.951h-18.059c4.988,0,9.031,3.452,9.031,7.716c0,4.26-4.043,7.716-9.031,7.716H244.172
		c-4.986,0-9.029-3.456-9.029-7.716c0-4.264,4.043-7.716,9.029-7.716h18.056c-4.985,0-9.028-3.457-9.028-7.717
		c0-4.262,4.043-7.719,9.028-7.719l0,0h-12.893c-4.987,0-9.028-3.454-9.028-7.716c0-4.261,4.041-7.716,9.028-7.716l0,0h104.454
		c4.986,0,9.029,3.455,9.029,7.716c0,4.263-4.042,7.716-9.029,7.716h12.894c4.985,0,9.028,3.457,9.028,7.719
		C375.711,287.494,371.668,290.951,366.682,290.951z"/>
    <path display="inline" opacity="0.1" fill="#6C63FF" enable-background="new    " d="M1029.301,106.615L28.068,127.437
		c-12.171,26.751-20.202,57-23.95,88.364H1011.76c6.577-18.419,11.444-37.253,14.552-56.327
		C1029.31,141.037,1030.511,123.217,1029.301,106.615z M207.384,174.819h-18.058c4.985,0,9.028,3.455,9.028,7.717
		c0,4.262-4.043,7.716-9.028,7.716H84.872c-4.986,0-9.029-3.454-9.029-7.716c0-4.262,4.043-7.717,9.029-7.717h18.058
		c-4.986,0-9.03-3.455-9.03-7.717s4.044-7.717,9.03-7.717H90.035c-4.986,0-9.029-3.455-9.029-7.717c0-4.261,4.043-7.716,9.029-7.716
		h104.454c4.986,0,9.028,3.455,9.028,7.716c0,4.263-4.042,7.717-9.028,7.717h12.895c4.986,0,9.028,3.455,9.028,7.717
		S212.369,174.819,207.384,174.819z"/>
</g>
    <g>
	<g>
		<path id="stand_stand" opacity="0.3" fill="#6C63FF" enable-background="new    " d="M455.728,568.948
			c248.473,0,449.898,15.643,449.898,34.932c0,19.296-201.426,34.936-449.898,34.936c-248.472,0-449.898-15.64-449.898-34.936
			C5.83,584.59,207.256,568.948,455.728,568.948z"/>
        <path id="svg_29" fill="none" stroke="#3F3D56" stroke-width="12" stroke-miterlimit="10" d="M508.922,575.596l0.298-14.989
			c14.113-0.803,28.229-1.341,42.343-1.607c8.193-0.15,16.492-0.204,24.421,1.852c5.494,1.428,10.692,3.842,16.112,5.534
			c10.798,3.367,22.23,3.811,33.566,4.118c11,0.308,22.486,0.415,32.361-4.443c17.097-8.47,24.285-29.27,25.121-48.315
			c0.836-19.043-2.953-38.235-0.318-57.163"/>
        <polygon id="arm_stand" fill="#9B9B9B" points="547.624,604.929 358.995,602.518 359.545,597.679 368.67,517.872 534.317,517.872
			546.513,597.679 547.445,603.724 		"/>
        <rect id="svg_32" x="327.556" y="598.887" fill="#D0D2D5" width="250.301" height="6.042"/>
        <path id="svg_33" fill="#3F3D56" d="M816.664,38.545c0.076-8.694-6.91-15.802-15.604-15.879c-0.021,0-0.042,0-0.064,0H101.991
			c-8.699,0.047-15.713,7.137-15.667,15.835c0,0.015,0,0.029,0,0.044v423.709h730.339V38.545z"/>
        <path id="svg_34" fill="#D0D2D5" d="M86.325,458.019v49.64c0,8.651,7.014,15.664,15.667,15.664h699.004
			c8.653,0,15.668-7.013,15.668-15.664v-49.64H86.325L86.325,458.019z"/>
        <rect id="svg_35" x="116.559" y="49.321" fill="#2F2E41" width="673.502" height="380.89"/>
        <path id="svg_36" fill="#6762D9" d="M455.126,504.494c5.009,0,9.743-2.301,12.841-6.238l0,0c0.465-0.594,0.89-1.219,1.27-1.87
			l-8.956-1.475l9.687,0.075c1.878-4.084,1.989-8.768,0.308-12.937l-12.988,6.743l11.982-8.807
			c-4.409-7.863-14.358-10.665-22.222-6.254c-7.863,4.406-10.664,14.357-6.255,22.219c0.452,0.81,0.973,1.575,1.556,2.296l0,0
			C445.427,502.175,450.135,504.476,455.126,504.494L455.126,504.494z"/>
	</g>
        <g>
		<g>
			<rect x="145.235" y="63.401" fill="#FFFFFF" stroke="#CECECE" stroke-miterlimit="10" width="466.583" height="267.467"/>
            <rect x="145.235" y="131.091" fill="#F3F4F6" stroke="#CECECE" stroke-miterlimit="10" width="466.583" height="198.568"/>
		</g>
            <g>
			<rect x="153.927" y="72.853" fill="#6862D9" fill-opacity="0.3" width="273.1" height="27.522"/>
                <rect x="153.927" y="146.69" fill="#6862D9" fill-opacity="0.3" width="266.75" height="16.638"/>
                <rect x="153.927" y="171.85" fill="#6862D9" fill-opacity="0.3" width="314.384" height="16.637"/>
                <rect x="153.929" y="201.1" fill="#6862D9" fill-opacity="0.3" width="199.266" height="16.639"/>
                <rect x="153.927" y="230.375" fill="#6862D9" fill-opacity="0.3" width="440.61" height="16.639"/>
                <rect x="153.929" y="259.087" fill="#6862D9" fill-opacity="0.3" width="120.671" height="16.64"/>
                <rect x="153.929" y="288.427" fill="#6862D9" fill-opacity="0.3" width="297.707" height="16.64"/>
                <rect x="153.927" y="107.785" fill="#6862D9" fill-opacity="0.3" width="192.124" height="13.76"/>
		</g>
	</g>
        <g>
		<g>
			<rect x="172.49" y="104.091" fill="#FFFFFF" stroke="#CECECE" stroke-miterlimit="10" width="466.581" height="267.469"/>
            <rect x="172.49" y="171.781" fill="#F3F4F6" stroke="#CECECE" stroke-miterlimit="10" width="466.581" height="198.566"/>
		</g>
            <g>
			<rect x="181.181" y="113.543" fill="#6862D9" fill-opacity="0.3" width="273.101" height="27.522"/>
                <rect x="181.181" y="187.38" fill="#6862D9" fill-opacity="0.3" width="266.75" height="16.638"/>
                <rect x="181.181" y="212.541" fill="#6862D9" fill-opacity="0.3" width="314.383" height="16.637"/>
                <rect x="181.182" y="241.791" fill="#6862D9" fill-opacity="0.3" width="199.266" height="16.638"/>
                <rect x="181.181" y="271.064" fill="#6862D9" fill-opacity="0.3" width="440.612" height="16.64"/>
                <rect x="181.182" y="299.778" fill="#6862D9" fill-opacity="0.3" width="120.672" height="16.638"/>
                <rect x="181.182" y="329.12" fill="#6862D9" fill-opacity="0.3" width="297.71" height="16.638"/>
                <rect x="181.181" y="148.475" fill="#6862D9" fill-opacity="0.3" width="192.124" height="13.76"/>
		</g>
	</g>
        <g>
		<g>
			<rect x="281.017" y="145.273" fill="#FFFFFF" stroke="#CECECE" stroke-miterlimit="10" width="466.582" height="267.469"/>
            <rect x="281.017" y="212.961" fill="#F3F4F6" stroke="#CECECE" stroke-miterlimit="10" width="466.582" height="198.567"/>
		</g>
            <g>
			<rect x="289.71" y="154.725" fill="#6862D9" fill-opacity="0.3" width="273.099" height="27.522"/>
                <rect x="289.71" y="228.561" fill="#6862D9" fill-opacity="0.3" width="266.748" height="16.638"/>
                <rect x="289.71" y="253.721" fill="#6862D9" fill-opacity="0.3" width="314.382" height="16.639"/>
                <rect x="289.711" y="282.971" fill="#6862D9" fill-opacity="0.3" width="199.266" height="16.64"/>
                <rect x="289.71" y="312.243" fill="#6862D9" fill-opacity="0.3" width="440.611" height="16.639"/>
                <rect x="289.711" y="340.958" fill="#6862D9" fill-opacity="0.3" width="120.671" height="16.639"/>
                <rect x="289.711" y="370.299" fill="#6862D9" fill-opacity="0.3" width="297.709" height="16.641"/>
                <rect x="289.71" y="189.656" fill="#6862D9" fill-opacity="0.3" width="192.124" height="13.76"/>
		</g>
	</g>
</g>
    <g>
	<g>
		<path opacity="0.3" fill="#6C63FF" enable-background="new    " d="M618.694,622.843c29.994,10.083,66.588,3.951,100.617,4.66
			c4.66,0.1,9.589,0.389,13.327,2.129c3.738,1.739,5.575,4.577,8.14,6.979c9.535,8.994,29.07,11.885,46.15,10.358
			c17.078-1.525,32.74-6.574,48.82-10.42c27.859-6.651,59.707-9.673,87.184-2.426c2.525,0.665,5.18,1.428,7.881,1.168
			c6.026-0.596,7.818-5.417,12.029-8.17c7.628-4.974,24.129-3.624,27.461-10.177c1.961-3.813-2.547-7.78-7.452-10.405
			c-18.781-10.039-45.647-11.694-70.226-10.145c-24.579,1.548-48.745,5.819-73.453,5.836c-30.779,0-60.522-6.554-91.006-9.239
			c-21.114-1.86-44.158-1.631-63.955,3.814C642.815,602.773,638.085,616.076,618.694,622.843z"/>
        <g>
			<path fill="#3F3D56" d="M896.6,308.158h-2.245v-61.501c0-19.658-15.937-35.595-35.595-35.595l0,0H728.463
				c-19.658,0-35.595,15.936-35.595,35.595l0,0v337.397c0,19.659,15.937,35.596,35.594,35.596c0,0,0,0,0.001,0H858.76
				c19.658,0,35.595-15.937,35.595-35.596l0,0V351.935h2.245V308.158z"/>
            <path opacity="0.2" enable-background="new    " d="M860.197,220.322h-17.009c2.635,6.458-0.467,13.83-6.924,16.463
				c-1.514,0.618-3.134,0.936-4.769,0.936h-74.646c-6.975,0-12.629-5.655-12.628-12.63c0.001-1.635,0.318-3.255,0.936-4.769h-15.886
				c-14.681,0-26.581,11.901-26.581,26.582v336.903c0,14.68,11.9,26.581,26.581,26.581l0,0h130.926
				c14.68,0,26.581-11.901,26.581-26.581l0,0V246.904C886.778,232.224,874.877,220.322,860.197,220.322L860.197,220.322z"/>
		</g>
	</g>
        <g>
		<g>
			<rect x="711.792" y="248.58" fill="#374151" width="165.884" height="163.415"/>
		</g>
            <g>
			<rect x="714.883" y="258.032" fill="#DCE7EB" fill-opacity="0.3" width="157.846" height="27.522"/>
                <rect x="714.883" y="296.343" fill="#DCE7EB" fill-opacity="0.3" width="145.846" height="16.638"/>
                <rect x="714.883" y="321.503" fill="#DCE7EB" fill-opacity="0.3" width="157.846" height="16.638"/>
                <rect x="714.883" y="350.752" fill="#DCE7EB" fill-opacity="0.3" width="145.846" height="16.641"/>
                <rect x="716.137" y="379.411" fill="#DCE7EB" fill-opacity="0.3" width="109.591" height="16.639"/>
		</g>
	</g>
        <g>
		<g>
			<rect x="711.792" y="421.786" fill="#374151" width="165.884" height="163.415"/>
		</g>
            <g>
			<rect x="714.883" y="431.238" fill="#DCE7EB" fill-opacity="0.3" width="157.846" height="27.522"/>
                <rect x="714.883" y="469.549" fill="#DCE7EB" fill-opacity="0.3" width="145.846" height="16.638"/>
                <rect x="714.883" y="494.708" fill="#DCE7EB" fill-opacity="0.3" width="157.846" height="16.639"/>
                <rect x="714.883" y="523.958" fill="#DCE7EB" fill-opacity="0.3" width="145.846" height="16.641"/>
                <rect x="716.137" y="552.617" fill="#DCE7EB" fill-opacity="0.3" width="109.591" height="16.639"/>
		</g>
	</g>
        <g>
		<g>
			<rect x="711.793" y="592.686" fill="#374151" width="165.884" height="18.445"/>
		</g>
            <g>
			<rect x="714.884" y="602.137" fill="#DCE7EB" fill-opacity="0.3" width="157.846" height="8.994"/>
		</g>
	</g>
        <path id="phone_shadow" fill="#3F3D56" d="M911.849,100.773"/>
</g>
    <path fill="#3F3D56" d="M886.967,584.111c-0.134,14.565-11.979,26.334-26.575,26.334H729.466c-14.598,0-26.441-11.769-26.575-26.334
	h-9.828c0,19.659,15.937,35.596,35.594,35.596c0,0,0,0,0.001,0h130.298c19.658,0,35.595-15.937,35.595-35.596H886.967z"/>
</svg>
