<svg width="625" height="436" xmlns="http://www.w3.org/2000/svg" xmlns:xlink="http://www.w3.org/1999/xlink">
    <g>
        <title>background</title>
        <rect fill="none" id="canvas_background" height="438" width="627" y="-1" x="-1"/>
    </g>
    <g>
        <title>Layer 1</title>
        <path id="svg_5" fill="#3f3d56" d="m615.71972,0l-607,0a8.72767,8.72767 0 0 0 -8.71972,8.72l0,411.31998a8.72766,8.72766 0 0 0 8.71972,8.72l607,0a8.71244,8.71244 0 0 0 6.63037,-3.06a2.0459,2.0459 0 0 0 0.19,-0.24a8.1667,8.1667 0 0 0 1.25,-2.11005a8.50722,8.50722 0 0 0 0.65966,-3.31l0,-411.31989a8.72954,8.72954 0 0 0 -8.73003,-8.72004zm6.24024,420.04a6.17538,6.17538 0 0 1 -1.03028,3.42a6.44588,6.44588 0 0 1 -2.35986,2.12a6.1843,6.1843 0 0 1 -2.8501,0.69l-607,0a6.23758,6.23758 0 0 1 -6.23,-6.23l0,-411.31996a6.23758,6.23758 0 0 1 6.23,-6.23005l607,0a6.23945,6.23945 0 0 1 6.24024,6.23005l0,411.31996z"/>
        <rect id="svg_6" fill="#3f3d56" height="2.49281" width="621.95676" y="34.94921" x="1.24265"/>
        <circle id="svg_7" fill="#3f3d56" r="7.47844" cy="18.6961" cx="22.43155"/>
        <circle id="svg_8" fill="#3f3d56" r="7.47844" cy="18.6961" cx="43.93206"/>
        <circle id="svg_9" fill="#3f3d56" r="7.47844" cy="18.6961" cx="65.43257"/>
        <path id="svg_31" fill="#3f3d56" d="m192.61629,150.5l-142.02,0a11.504,11.504 0 0 0 -11.49024,11.49l0,142.02a11.504,11.504 0 0 0 11.49024,11.49l142.02,0a11.49726,11.49726 0 0 0 11.48974,-11.49l0,-142.02a11.49727,11.49727 0 0 0 -11.48974,-11.49zm9.48974,153.51a9.49787,9.49787 0 0 1 -9.48974,9.49l-142.02,0a9.50458,9.50458 0 0 1 -9.49024,-9.49l0,-142.02a9.50458,9.50458 0 0 1 9.49024,-9.49l142.02,0a9.49787,9.49787 0 0 1 9.48974,9.49l0,142.02zm-109.62011,9.49l-0.21,2l59.47022,0c0.16992,-0.68 0.33984,-1.35 0.52978,-2l-59.79,0z"/>
        <path id="svg_32" fill="#3f3d56" d="m383.22615,150.5l-142.02,0a11.504,11.504 0 0 0 -11.49023,11.49l0,142.02a11.504,11.504 0 0 0 11.49023,11.49l142.02,0a11.49727,11.49727 0 0 0 11.48975,-11.49l0,-142.02a11.49728,11.49728 0 0 0 -11.48975,-11.49zm9.48975,153.51a9.49788,9.49788 0 0 1 -9.48975,9.49l-142.02,0a9.50457,9.50457 0 0 1 -9.49023,-9.49l0,-142.02a9.50457,9.50457 0 0 1 9.49023,-9.49l142.02,0a9.49788,9.49788 0 0 1 9.48975,9.49l0,142.02zm-125.27979,9.49q0.18018,0.645 0.39014,1.29l-0.25,0.71l49.65967,0c0.05029,-0.67 0.09033,-1.34 0.14013,-2l-49.93994,0z"/>
        <path id="svg_33" fill="#3f3d56" d="m573.84627,150.5l-142.02,0a11.49738,11.49738 0 0 0 -11.49024,11.49l0,142.02a11.49738,11.49738 0 0 0 11.49024,11.49l142.02,0a11.50385,11.50385 0 0 0 11.48974,-11.49l0,-142.02a11.50385,11.50385 0 0 0 -11.48974,-11.49zm9.48974,153.51a9.50415,9.50415 0 0 1 -9.48974,9.49l-142.02,0a9.498,9.498 0 0 1 -9.49024,-9.49l0,-142.02a9.498,9.498 0 0 1 9.49024,-9.49l142.02,0a9.50415,9.50415 0 0 1 9.48974,9.49l0,142.02zm-76.91992,9.49c-0.0498,0.66 -0.1001,1.33 -0.1499,2l43.08984,0c0.08008,-0.66 0.16992,-1.33 0.25,-2l-43.18994,0z"/>
        <path id="svg_34" fill="#ccc" d="m477.22102,373.5l-330,0a8,8 0 1 1 0,-16l330,0a8,8 0 1 1 0,16z"/>
        <path id="svg_35" fill="#6c63ff" d="m384.72102,108.5l-145,0a8,8 0 0 1 0,-16l145,0a8,8 0 0 1 0,16z"/>
        <defs>
            <linearGradient y2="0.00004" x2="0.5" y1="1" x1="0.5" id="svg_267">
                <stop stop-opacity="0.25" stop-color="gray" offset="0"/>
                <stop stop-opacity="0.12" stop-color="gray" offset="0.54"/>
                <stop stop-opacity="0.1" stop-color="gray" offset="1"/>
            </linearGradient>
            <linearGradient xlink:href="#svg_267" y2="258.44" x2="385.08" y1="490.21" x1="385.08" id="svg_254"/>
            <linearGradient xlink:href="#svg_267" y2="0.51" x2="384.97" y1="232.29" x1="384.97" id="svg_233"/>
            <linearGradient xlink:href="#svg_267" y2="0" x2="661.23" y1="231.77" x1="661.23" id="svg_217"/>
            <linearGradient xlink:href="#svg_267" y2="250.85" x2="115.89" y1="482.62" x1="115.89" id="svg_200"/>
            <linearGradient xlink:href="#svg_267" y2="263.7" x2="665.55" y1="495.47" x1="665.55" id="svg_184"/>
            <linearGradient xlink:href="#svg_267" y2="511.38" x2="116.72" y1="743.15" x1="116.72" id="svg_165"/>
            <linearGradient xlink:href="#svg_267" y2="524.67" x2="392.03" y1="756.44" x1="392.03" id="svg_151"/>
            <linearGradient id="svg_504" x1="0.5" y1="1" x2="0.5" y2="0.00004">
                <stop offset="0" stop-color="gray" stop-opacity="0.25"/>
                <stop offset="0.54" stop-color="gray" stop-opacity="0.12"/>
                <stop offset="1" stop-color="gray" stop-opacity="0.1"/>
            </linearGradient>
            <linearGradient id="svg_502" x1="385.08" y1="490.21" x2="385.08" y2="258.44" xlink:href="#svg_504"/>
            <linearGradient id="svg_482" x1="384.97" y1="232.29" x2="384.97" y2="0.51" xlink:href="#svg_504"/>
            <linearGradient id="svg_468" x1="661.23" y1="231.77" x2="661.23" y2="0" xlink:href="#svg_504"/>
            <linearGradient id="svg_452" x1="115.89" y1="482.62" x2="115.89" y2="250.85" xlink:href="#svg_504"/>
            <linearGradient id="svg_437" x1="665.55" y1="495.47" x2="665.55" y2="263.7" xlink:href="#svg_504"/>
            <linearGradient id="svg_419" x1="116.72" y1="743.15" x2="116.72" y2="511.38" xlink:href="#svg_504"/>
            <linearGradient id="svg_405" x1="392.03" y1="756.44" x2="392.03" y2="524.67" xlink:href="#svg_504"/>
            <linearGradient y2="0.00004" x2="0.5" y1="1" x1="0.5" id="svg_671">
                <stop stop-opacity="0.25" stop-color="gray" offset="0"/>
                <stop stop-opacity="0.12" stop-color="gray" offset="0.54"/>
                <stop stop-opacity="0.1" stop-color="gray" offset="1"/>
            </linearGradient>
            <linearGradient xlink:href="#svg_671" y2="258.44" x2="385.08" y1="490.21" x1="385.08" id="svg_660"/>
            <linearGradient xlink:href="#svg_671" y2="0.51" x2="384.97" y1="232.29" x1="384.97" id="svg_769"/>
            <linearGradient xlink:href="#svg_671" y2="0" x2="661.23" y1="231.77" x1="661.23" id="svg_754"/>
            <linearGradient xlink:href="#svg_671" y2="250.85" x2="115.89" y1="482.62" x1="115.89" id="svg_686"/>
            <linearGradient xlink:href="#svg_671" y2="511.38" x2="116.72" y1="743.15" x1="116.72" id="svg_737"/>
            <linearGradient xlink:href="#svg_671" y2="524.67" x2="392.03" y1="756.44" x1="392.03" id="svg_698"/>
        </defs>
        <g id="svg_272" stroke="null">
            <g id="svg_270" transform="matrix(0.19952108454867615,0,0,0.20854347309142354,-75.80123330230481,-689.5827818751657) " stroke="null">
                <title transform="translate(0,-1.8189894035458565e-12) translate(0,0.000033762822567950934) translate(0,-889.0410766601562) ">background</title>
                <rect fill="none" id="svg_268" height="602" width="802" y="4038.48344" x="594.01306" stroke="null"/>
            </g>
            <g id="svg_271" transform="matrix(0.19952108454867615,0,0,0.20854347309142354,-75.80123330230481,-689.5827818751657) " stroke="null">
                <title transform="translate(0,-1.8189894035458565e-12) translate(0,0.000033762822567950934) translate(0,-889.0410766601562) ">Layer 1</title>
                <g id="svg_265" opacity="0.5" stroke="null">
                    <circle id="svg_266" fill="url(#svg_267)" r="115.89" cy="4161.57344" cx="711.73306" stroke="null"/>
                </g>
                <circle id="svg_264" fill="#f5f5f5" r="113.44" cy="4160.94344" cx="711.73306" stroke="null"/>
                <path id="svg_263" fill="#6c63ff" d="m712.05306,4274.70344a112.91,112.91 0 0 0 62.36,-18.66c-4.18,-22.84 -20.09,-24.15 -20.09,-24.15l-87.71,0s-15,1.23 -19.7,22.25a112.92,112.92 0 0 0 65.14,20.56z" stroke="null"/>
                <circle id="svg_262" fill="#333" r="50.29" cy="4158.44344" cx="710.86306" stroke="null"/>
                <path id="svg_261" opacity="0.1" d="m693.19306,4204.05344l35.09,0a0,0 0 0 1 0,0l0,28.07a17.54,17.54 0 0 1 -17.54,17.54l0,0a17.54,17.54 0 0 1 -17.54,-17.54l0,-28.07a0,0 0 0 1 -0.01,0z" stroke="null"/>
                <path id="svg_260" fill="#be7c5e" d="m696.54306,4202.75344l28.39,0a3.35,3.35 0 0 1 3.35,3.35l0,24.72a17.54,17.54 0 0 1 -17.54,17.54l0,0a17.54,17.54 0 0 1 -17.54,-17.54l0,-24.72a3.35,3.35 0 0 1 3.34,-3.35z" stroke="null"/>
                <path id="svg_259" opacity="0.1" d="m693.26306,4217.30344a50.5,50.5 0 0 0 35.09,0.1l0,-4.31l-35.09,0l0,4.21z" stroke="null"/>
                <circle id="svg_258" fill="#be7c5e" r="50.29" cy="4169.36344" cx="710.86306" stroke="null"/>
                <path id="svg_257" fill="#333" d="m680.39306,4148.62344c0.59,-2.17 1.33,-4.56 3.28,-5.69c1.54,-0.9 3.45,-0.76 5.23,-0.67c13.9,0.76 27.68,-2.41 41.2,-5.72c7.73,-1.89 16,-4.19 21,-10.42s-1.52,-25.81 -9.13,-28.12c-5,-1.53 -10.8,1.32 -15.54,-0.92c-2.11,-1 -3.66,-2.87 -5.48,-4.33c-3.73,-3 -8.52,-4.21 -13.16,-5.35c-5.42,-1.34 -11.28,-2.65 -16.43,-0.5c-4,1.66 -6.92,5.17 -10.71,7.25c-7.21,4 -16,2.14 -24.26,2.12c-2.79,0 -6.12,0.56 -7.23,3.12c-0.75,1.74 -0.15,3.72 -0.07,5.61c0.24,6 -4.71,10.67 -8.86,15s-8.07,10.51 -5.45,15.89c1,2.05 2.83,3.6 3.87,5.63c1.79,3.52 0.89,7.77 1.54,11.66a29.34,29.34 0 0 0 3.27,8.4c3.08,6 18.55,38.3 25.66,30.09c3.44,-4 4,-15.56 5.39,-20.76q2.88,-11.21 5.88,-22.29z" stroke="null"/>
                <ellipse id="svg_256" fill="#be7c5e" ry="8.77" rx="4.68" cy="4167.53344" cx="675.08306" stroke="null"/>
                <g id="svg_252" opacity="0.5" stroke="null">
                    <circle id="svg_253" fill="url(#svg_254)" r="115.89" cy="4413.80344" cx="980.09306" stroke="null"/>
                </g>
                <circle id="svg_251" fill="#f5f5f5" r="113.44" cy="4413.06344" cx="980.31306" stroke="null"/>
                <path id="svg_250" fill="#6c63ff" d="m980.41306,4526.95344a112.91,112.91 0 0 0 62.32,-18.66c-4.18,-22.84 -20.09,-24.15 -20.09,-24.15l-87.68,0s-15,1.23 -19.7,22.25a112.92,112.92 0 0 0 65.15,20.56z" stroke="null"/>
                <circle id="svg_249" fill="#f55f44" r="54.76" cy="4410.67344" cx="979.21306" stroke="null"/>
                <path id="svg_248" opacity="0.1" d="m961.54306,4456.28344l35.09,0a0,0 0 0 1 0,0l0,28.07a17.54,17.54 0 0 1 -17.54,17.54l0,0a17.54,17.54 0 0 1 -17.54,-17.54l0,-28.07a0,0 0 0 1 -0.01,0z" stroke="null"/>
                <path id="svg_247" fill="#fda57d" d="m964.89306,4454.98344l28.39,0a3.35,3.35 0 0 1 3.35,3.35l0,24.72a17.54,17.54 0 0 1 -17.54,17.54l0,0a17.54,17.54 0 0 1 -17.54,-17.54l0,-24.72a3.35,3.35 0 0 1 3.35,-3.35l-0.01,0z" stroke="null"/>
                <path id="svg_246" opacity="0.1" d="m961.61306,4469.53344a50.5,50.5 0 0 0 35.09,0.1l0,-4.31l-35.09,0l0,4.21z" stroke="null"/>
                <circle id="svg_245" fill="#fda57d" r="50.29" cy="4421.59344" cx="979.21306" stroke="null"/>
                <circle id="svg_244" fill="#f55f44" r="20.24" cy="4354.97344" cx="979.14306" stroke="null"/>
                <circle id="svg_243" fill="#f55f44" r="13.29" cy="4335.04344" cx="979.14306" stroke="null"/>
                <path id="svg_242" fill="#f55f44" d="m970.36306,4366.07344a20.24,20.24 0 0 1 -10.55,-25.88c-0.14,0.28 -0.28,0.57 -0.41,0.86a20.24,20.24 0 1 0 36.94,16.57c0.13,-0.29 0.25,-0.58 0.37,-0.88a20.24,20.24 0 0 1 -26.35,9.33z" stroke="null"/>
                <path id="svg_241" opacity="0.1" d="m943.40306,4375.85344s21.19,43 81,18l-13.92,-21.83l-24.67,-8.86l-42.41,12.69z" stroke="null"/>
                <path id="svg_239" fill="#f55f44" d="m943.40306,4375.21344s21.19,43 81,18l-13.92,-21.83l-24.67,-8.86l-42.41,12.69z" stroke="null"/>
                <path id="svg_238" fill="#333" d="m959.73306,4359.55344a249.85,249.85 0 0 1 39.18,0s-28.94,2.69 -39.18,0z" stroke="null"/>
                <path id="svg_237" fill="#f55f44" d="m982.18306,4320.94344a13.32,13.32 0 0 0 -3,0.23l0.77,0a13.28,13.28 0 0 1 2,26.33a13.28,13.28 0 0 0 0.24,-26.56l-0.01,0z" stroke="null"/>
                <ellipse id="svg_236" fill="#fda57d" ry="8.77" rx="4.68" cy="4421.54344" cx="928.91306" stroke="null"/>
                <ellipse id="svg_235" fill="#fda57d" ry="8.77" rx="4.68" cy="4421.54344" cx="1029.50306" stroke="null"/>
                <polygon id="svg_234" fill="#f55f44" points="940.2332763671875,4376.483398437498 950.0428466796875,4371.423339843748 952.2528076171875,4379.533203124998 946.2430419921875,4383.623535156248 940.2332763671875,4376.483398437498 " stroke="null"/>
                <g id="svg_231" opacity="0.5" stroke="null">
                    <circle id="svg_232" fill="url(#svg_233)" r="115.89" cy="4155.88344" cx="979.98306" stroke="null"/>
                </g>
                <circle id="svg_230" fill="#f5f5f5" r="113.44" cy="4155.25344" cx="979.98306" stroke="null"/>
                <path id="svg_229" fill="#333" d="m935.73306,4156.26344s-12.86,63.36 -19.88,59.85c0,0 67.7,58.48 127.48,0c0,0 -10.53,-44.65 -25.73,-59.85l-81.87,0z" stroke="null"/>
                <path id="svg_228" fill="#6c63ff" d="m980.30306,4269.03344a112.91,112.91 0 0 0 62.36,-18.66c-4.18,-22.84 -20.09,-24.15 -20.09,-24.15l-87.72,0s-15,1.23 -19.7,22.25a112.92,112.92 0 0 0 65.15,20.56z" stroke="null"/>
                <circle id="svg_227" fill="#333" r="50.29" cy="4152.75344" cx="979.10306" stroke="null"/>
                <path id="svg_226" opacity="0.1" d="m961.43306,4198.36344l35.09,0a0,0 0 0 1 0,0l0,28.07a17.54,17.54 0 0 1 -17.51,17.54l0,0a17.54,17.54 0 0 1 -17.54,-17.54l0,-28.07a0,0 0 0 1 -0.04,0z" stroke="null"/>
                <path id="svg_225" fill="#be7c5e" d="m964.78306,4197.06344l28.39,0a3.35,3.35 0 0 1 3.35,3.35l0,24.72a17.54,17.54 0 0 1 -17.51,17.54l0,0a17.54,17.54 0 0 1 -17.54,-17.54l0,-24.73a3.35,3.35 0 0 1 3.31,-3.34z" stroke="null"/>
                <path id="svg_223" opacity="0.1" d="m961.50306,4211.61344a50.5,50.5 0 0 0 35.09,0.1l0,-4.31l-35.09,0l0,4.21z" stroke="null"/>
                <circle id="svg_222" fill="#be7c5e" r="50.29" cy="4163.66344" cx="979.10306" stroke="null"/>
                <path id="svg_221" fill="#333" d="m931.03306,4144.56344l95.9,0s-8.19,-38.72 -44.44,-36.25s-51.46,36.25 -51.46,36.25z" stroke="null"/>
                <ellipse id="svg_220" fill="#be7c5e" ry="8.77" rx="4.68" cy="4161.52344" cx="929.85306" stroke="null"/>
                <ellipse id="svg_219" fill="#be7c5e" ry="8.77" rx="4.68" cy="4161.52344" cx="1028.09306" stroke="null"/>
                <path id="svg_218" opacity="0.1" d="m931.03306,4145.86344l95.9,0s-8.19,-38.72 -44.44,-36.25s-51.46,36.25 -51.46,36.25z" stroke="null"/>
                <g id="svg_215" opacity="0.5" stroke="null">
                    <circle id="svg_216" fill="url(#svg_217)" r="115.89" cy="4155.37344" cx="1256.24306" stroke="null"/>
                </g>
                <circle id="svg_214" fill="#f5f5f5" r="113.44" cy="4154.62344" cx="1256.46306" stroke="null"/>
                <path id="svg_213" fill="#6c63ff" d="m1256.56306,4268.52344a112.91,112.91 0 0 0 62.36,-18.66c-4.19,-22.85 -20.09,-24.16 -20.09,-24.16l-87.71,0s-15,1.23 -19.7,22.25a112.92,112.92 0 0 0 65.14,20.57z" stroke="null"/>
                <circle id="svg_212" fill="#72351c" r="54.76" cy="4152.23344" cx="1255.37306" stroke="null"/>
                <path id="svg_211" opacity="0.1" d="m1237.69306,4197.84344l35.09,0a0,0 0 0 1 0,0l0,28.07a17.54,17.54 0 0 1 -17.54,17.57l0,0a17.54,17.54 0 0 1 -17.54,-17.54l0,-28.1a0,0 0 0 1 -0.01,0z" stroke="null"/>
                <path id="svg_210" fill="#fda57d" d="m1241.01306,4196.54344l28.39,0a3.35,3.35 0 0 1 3.35,3.35l0,24.72a17.54,17.54 0 0 1 -17.54,17.54l0,0a17.54,17.54 0 0 1 -17.54,-17.54l0,-24.72a3.35,3.35 0 0 1 3.35,-3.35l-0.01,0z" stroke="null"/>
                <path id="svg_208" opacity="0.1" d="m1237.73306,4211.09344a50.5,50.5 0 0 0 35.09,0.1l0,-4.31l-35.09,0l0,4.21z" stroke="null"/>
                <circle id="svg_207" fill="#fda57d" r="50.29" cy="4163.15344" cx="1255.37306" stroke="null"/>
                <path id="svg_206" opacity="0.1" d="m1219.55306,4117.41344s21.19,43 81,18l-13.92,-21.83l-24.67,-8.86l-42.41,12.69z" stroke="null"/>
                <path id="svg_205" fill="#72351c" d="m1219.55306,4116.78344s21.19,43 81,18l-13.92,-21.83l-24.67,-8.86l-42.41,12.69z" stroke="null"/>
                <path id="svg_204" fill="#72351c" d="m1219.36306,4113.87344a29.05,29.05 0 0 1 7.2,-11.71c9.89,-9.78 26.11,-11.84 34.43,-23a6.51,6.51 0 0 1 -3,9.18c8,-0.05 17.21,-0.75 21.71,-7.31a14.91,14.91 0 0 1 -2.51,15.74c7.06,0.32 14.6,5.11 15.06,12.17c0.3,4.7 -2.64,9.15 -6.51,11.85s-8.53,3.91 -13.13,4.91c-13.42,3 -62.01,15.41 -53.25,-11.83z" stroke="null"/>
                <path id="svg_203" fill="#72351c" d="m1305.66306,4163.59344l-1.33,0l-25.94,23.11c-25,-11.7 -43.34,0 -43.34,0l-27.2,-22.14l-2.74,0.34a50.29,50.29 0 0 0 100.56,-1.29l-0.01,-0.02zm-50.36,31.95c-9.78,0 -17.71,-2 -17.71,-4.43s7.93,-4.43 17.71,-4.43s17.71,2 17.71,4.43s-7.93,4.43 -17.72,4.43l0.01,0z" stroke="null"/>
                <ellipse id="svg_202" fill="#fda57d" ry="8.77" rx="4.68" cy="4163.10344" cx="1205.06306" stroke="null"/>
                <ellipse id="svg_201" fill="#fda57d" ry="8.77" rx="4.68" cy="4163.10344" cx="1305.65306" stroke="null"/>
                <g id="svg_198" opacity="0.5" stroke="null">
                    <circle id="svg_199" fill="url(#svg_200)" r="115.89" cy="4406.21344" cx="710.90306" stroke="null"/>
                </g>
                <circle id="svg_197" fill="#f5f5f5" r="113.44" cy="4405.47344" cx="711.12306" stroke="null"/>
                <path id="svg_196" fill="#6c63ff" d="m711.22306,4519.36344a112.91,112.91 0 0 0 62.35,-18.66c-4.18,-22.84 -20.09,-24.15 -20.09,-24.15l-87.75,0s-15,1.23 -19.7,22.25a112.92,112.92 0 0 0 65.19,20.56z" stroke="null"/>
                <circle id="svg_195" fill="#333" r="54.76" cy="4403.08344" cx="710.02306" stroke="null"/>
                <path id="svg_194" opacity="0.1" d="m692.35306,4448.69344l35.09,0a0,0 0 0 1 0,0l0,28.07a17.54,17.54 0 0 1 -17.54,17.54l0,0a17.54,17.54 0 0 1 -17.54,-17.54l0,-28.07a0,0 0 0 1 -0.01,0z" stroke="null"/>
                <path id="svg_193" fill="#fdb797" d="m695.70306,4447.39344l28.39,0a3.35,3.35 0 0 1 3.35,3.35l0,24.74a17.54,17.54 0 0 1 -17.54,17.54l0,0a17.54,17.54 0 0 1 -17.55,-17.54l0,-24.75a3.35,3.35 0 0 1 3.35,-3.35l0,0.01z" stroke="null"/>
                <path id="svg_192" opacity="0.1" d="m692.42306,4461.94344a50.5,50.5 0 0 0 35.09,0.1l0,-4.34l-35.09,0l0,4.24z" stroke="null"/>
                <circle id="svg_190" fill="#fdb797" r="50.29" cy="4414.00344" cx="710.02306" stroke="null"/>
                <path id="svg_189" opacity="0.1" d="m674.21306,4368.25344s21.19,43 81,18l-13.92,-21.83l-24.67,-8.86l-42.41,12.69z" stroke="null"/>
                <path id="svg_188" fill="#333" d="m674.21306,4367.62344s21.19,43 81,18l-13.92,-21.83l-24.67,-8.86l-42.41,12.69z" stroke="null"/>
                <path id="svg_187" fill="#333" d="m674.02306,4364.70344a29.05,29.05 0 0 1 7.2,-11.71c9.89,-9.78 26.11,-11.84 34.43,-23a6.51,6.51 0 0 1 -3,9.18c8,-0.05 17.21,-0.75 21.71,-7.31a14.91,14.91 0 0 1 -2.51,15.74c7.06,0.32 14.6,5.11 15.06,12.17c0.3,4.7 -2.64,9.15 -6.51,11.85s-8.54,3.93 -13.14,4.95c-13.42,2.98 -62,15.39 -53.24,-11.87z" stroke="null"/>
                <ellipse id="svg_186" fill="#fdb797" ry="8.77" rx="4.68" cy="4413.95344" cx="659.71306" stroke="null"/>
                <ellipse id="svg_185" fill="#fdb797" ry="8.77" rx="4.68" cy="4413.95344" cx="760.30306" stroke="null"/>
                <g id="svg_182" opacity="0.5" stroke="null">
                    <circle id="svg_183" fill="url(#svg_184)" r="115.89" cy="4419.06344" cx="1260.56306" stroke="null"/>
                </g>
                <circle id="svg_181" fill="#f5f5f5" r="113.44" cy="4418.43344" cx="1260.56306" stroke="null"/>
                <path id="svg_180" fill="#6c63ff" d="m1260.88306,4532.21344a112.91,112.91 0 0 0 62.36,-18.66c-4.18,-22.84 -20.09,-24.15 -20.09,-24.15l-87.72,0s-15,1.23 -19.7,22.25a112.92,112.92 0 0 0 65.15,20.56z" stroke="null"/>
                <path id="svg_179" opacity="0.1" d="m1242.01306,4461.54344l35.09,0a0,0 0 0 1 0,0l0,28.07a17.54,17.54 0 0 1 -17.54,17.54l0,0a17.54,17.54 0 0 1 -17.55,-17.54l0,-28.07a0,0 0 0 1 0,0z" stroke="null"/>
                <path id="svg_178" fill="#fdb797" d="m1245.36306,4460.24344l28.39,0a3.35,3.35 0 0 1 3.35,3.35l0,24.72a17.54,17.54 0 0 1 -17.54,17.54l0,0a17.54,17.54 0 0 1 -17.55,-17.54l0,-24.72a3.35,3.35 0 0 1 3.35,-3.35z" stroke="null"/>
                <path id="svg_176" opacity="0.1" d="m1242.08306,4474.79344a50.5,50.5 0 0 0 35.09,0.1l0,-4.31l-35.09,0l0,4.21z" stroke="null"/>
                <circle id="svg_175" fill="#fdb797" r="50.29" cy="4426.85344" cx="1259.68306" stroke="null"/>
                <ellipse id="svg_174" fill="#fdb797" ry="8.77" rx="4.68" cy="4424.70344" cx="1210.43306" stroke="null"/>
                <ellipse id="svg_173" fill="#fdb797" ry="8.77" rx="4.68" cy="4424.70344" cx="1308.67306" stroke="null"/>
                <rect id="svg_172" stroke-width="2" stroke-miterlimit="10" fill="none" ry="4.35" rx="4.35" height="10.76" width="21.51" y="4427.09344" x="1229.04306" stroke="#333"/>
                <rect id="svg_171" stroke-width="2" stroke-miterlimit="10" fill="none" transform="rotate(180 2173.4328613281245,4897.2333984375) " ry="4.35" rx="4.35" height="10.76" width="21.51" y="5356.62344" x="3056.5331" stroke="#333"/>
                <path id="svg_170" stroke-width="2" stroke-miterlimit="10" fill="none" d="m1249.73306,4428.13344s6.82,-3.7 19.5,0" stroke="#333"/>
                <path id="svg_169" fill="#858585" d="m1294.45306,4390.40344l12.34,28.67s15.09,-19.02 -12.34,-28.67z" stroke="null"/>
                <line id="svg_168" stroke-width="2" stroke-linejoin="round" stroke-linecap="round" fill="none" y2="4416.02344" x2="1308.75306" y1="4432.47344" x1="1290.33306" stroke="#333"/>
                <path id="svg_167" fill="#858585" d="m1224.93306,4390.40344l-12.34,28.67s-15.09,-19.02 12.34,-28.67z" stroke="null"/>
                <line id="svg_166" stroke-width="2" stroke-linejoin="round" stroke-linecap="round" fill="none" y2="4416.02344" x2="1210.37306" y1="4432.47344" x1="1229.04306" stroke="#333"/>
                <g id="svg_163" opacity="0.5" stroke="null">
                    <circle id="svg_164" fill="url(#svg_165)" r="115.89" cy="4666.74344" cx="711.73306" stroke="null"/>
                </g>
                <circle id="svg_162" fill="#f5f5f5" r="113.44" cy="4666.11344" cx="711.73306" stroke="null"/>
                <path id="svg_161" fill="#fdd835" d="m774.48306,4676.31344c0,41.78 -27.26,88.29 -60.89,88.29s-60.86,-46.51 -60.86,-88.29s27.26,-63 60.89,-63s60.86,21.23 60.86,63z" stroke="null"/>
                <path id="svg_160" fill="#6c63ff" d="m712.05306,4779.90344a112.91,112.91 0 0 0 62.36,-18.66c-4.18,-22.84 -20.09,-24.15 -20.09,-24.15l-87.71,0s-15,1.23 -19.7,22.25a112.92,112.92 0 0 0 65.14,20.56z" stroke="null"/>
                <path id="svg_159" opacity="0.1" d="m693.19306,4709.22344l35.09,0a0,0 0 0 1 0,0l0,28.07a17.54,17.54 0 0 1 -17.54,17.54l0,0a17.54,17.54 0 0 1 -17.54,-17.54l0,-28.07a0,0 0 0 1 -0.01,0z" stroke="null"/>
                <path id="svg_158" fill="#fdb797" d="m696.54306,4707.92344l28.39,0a3.35,3.35 0 0 1 3.35,3.35l0,24.72a17.54,17.54 0 0 1 -17.54,17.54l0,0a17.54,17.54 0 0 1 -17.54,-17.54l0,-24.72a3.35,3.35 0 0 1 3.34,-3.35z" stroke="null"/>
                <path id="svg_157" opacity="0.1" d="m693.26306,4722.47344a50.5,50.5 0 0 0 35.09,0.1l0,-4.31l-35.09,0l0,4.21z" stroke="null"/>
                <circle id="svg_156" fill="#fdb797" r="50.29" cy="4674.53344" cx="710.86306" stroke="null"/>
                <ellipse id="svg_155" fill="#fdb797" ry="8.77" rx="4.68" cy="4672.38344" cx="661.61306" stroke="null"/>
                <ellipse id="svg_154" fill="#fdb797" ry="8.77" rx="4.68" cy="4672.38344" cx="759.85306" stroke="null"/>
                <path id="svg_153" opacity="0.1" d="m666.30306,4647.25344s28.43,38.91 93.63,25.62c0,0 7.28,-8.86 -10.44,-36.06s-67.06,-22.77 -83.19,10.44z" stroke="null"/>
                <path id="svg_152" fill="#fdd835" d="m666.30306,4646.62344s28.43,38.91 93.63,25.62c0,0 7.28,-8.86 -10.44,-36.06s-67.06,-22.77 -83.19,10.44z" stroke="null"/>
                <g id="svg_149" opacity="0.5" stroke="null">
                    <circle id="svg_150" fill="url(#svg_151)" r="115.89" cy="4680.03344" cx="987.04306" stroke="null"/>
                </g>
                <circle id="svg_148" fill="#f5f5f5" r="113.44" cy="4679.29344" cx="987.27306" stroke="null"/>
                <path id="svg_147" fill="#333" d="m1049.68306,4690.47344c0,37.74 -27.11,56.31 -62.32,56.31s-65.16,-18.57 -65.16,-56.31s28.54,-68.33 63.74,-68.33s63.74,30.56 63.74,68.33z" stroke="null"/>
                <path id="svg_146" fill="#6c63ff" d="m987.36306,4793.18344a112.91,112.91 0 0 0 62.37,-18.66c-4.18,-22.84 -20.09,-24.15 -20.09,-24.15l-87.72,0s-15,1.23 -19.7,22.25a112.92,112.92 0 0 0 65.14,20.56z" stroke="null"/>
                <path id="svg_145" opacity="0.1" d="m968.50306,4722.48344l35.09,0a0,0 0 0 1 0,0l0,28.07a17.54,17.54 0 0 1 -17.58,17.57l0,0a17.54,17.54 0 0 1 -17.54,-17.54l0,-28.1a0,0 0 0 1 0.03,0z" stroke="null"/>
                <path id="svg_144" fill="#fda57d" d="m971.84306,4721.21344l28.39,0a3.35,3.35 0 0 1 3.35,3.35l0,24.72a17.54,17.54 0 0 1 -17.57,17.54l0,0a17.54,17.54 0 0 1 -17.54,-17.54l0,-24.73a3.35,3.35 0 0 1 3.35,-3.35l0.02,0.01z" stroke="null"/>
                <path id="svg_143" opacity="0.1" d="m968.57306,4735.76344a50.5,50.5 0 0 0 35.09,0.1l0,-4.31l-35.09,0l0,4.21z" stroke="null"/>
                <circle id="svg_142" fill="#fda57d" r="50.29" cy="4687.81344" cx="986.17306" stroke="null"/>
                <path id="svg_141" opacity="0.1" d="m928.21306,4691.10344s31.32,-3.8 55,-34.16c0,0 31.32,34.48 53.14,30.68c0,0 12.65,-13.29 0,-26.57s-22.46,-30.05 -39.22,-27.84s-37.33,3.16 -46.18,11.07s-22.74,46.82 -22.74,46.82z" stroke="null"/>
                <path id="svg_140" fill="#333" d="m928.21306,4690.47344s31.32,-3.8 55,-34.16c0,0 31.32,34.48 53.14,30.68c0,0 12.65,-13.29 0,-26.57s-22.46,-30.05 -39.22,-27.84s-37.29,3.12 -46.14,11.12s-22.78,46.77 -22.78,46.77z" stroke="null"/>
                <ellipse id="svg_139" fill="#fda57d" ry="8.77" rx="4.68" cy="4687.77344" cx="935.86306" stroke="null"/>
                <ellipse id="svg_138" fill="#fda57d" ry="8.77" rx="4.68" cy="4687.77344" cx="1036.45306" stroke="null"/>
            </g>
        </g>

        <g id="svg_508" stroke="null">
            <g id="svg_506" transform="matrix(0.20104448608208964,0,0,0.2138311945856568,-447.9804187413247,-714.3665665222507) " stroke="null">
                <title transform="translate(4.547473508864641e-13,-1.3642420526593924e-12) translate(4.547473508864641e-13,0.00003292791734565981) translate(4.547473508864641e-13,-867.0564575195312) ">background</title>
                <rect x="3382.36039" y="4051.71238" width="783.43" height="758.44" id="svg_503" fill="none" stroke="null"/>
            </g>
            <g id="svg_507" transform="matrix(0.20104448608208964,0,0,0.2138311945856568,-447.9804187413247,-714.3665665222507) " stroke="null">
                <title transform="translate(4.547473508864641e-13,-1.3642420526593924e-12) translate(4.547473508864641e-13,0.00003292791734565981) translate(4.547473508864641e-13,-867.0564575195312) ">Layer 1</title>
                <g opacity="0.5" id="svg_500" stroke="null">
                    <circle cx="3771.44039" cy="4176.03238" r="115.89" fill="url(#svg_502)" id="svg_501" stroke="null"/>
                </g>
                <circle cx="3771.66039" cy="4175.29238" r="113.44" fill="#f5f5f5" id="svg_499" stroke="null"/>
                <path d="m3771.76039,4289.18238a112.91,112.91 0 0 0 62.32,-18.66c-4.18,-22.84 -20.09,-24.15 -20.09,-24.15l-87.68,0s-15,1.23 -19.7,22.25a112.92,112.92 0 0 0 65.15,20.56z" fill="#6c63ff" id="svg_498" stroke="null"/>
                <circle cx="3770.56039" cy="4172.90238" r="54.76" fill="#f55f44" id="svg_497" stroke="null"/>
                <path d="m3752.89039,4218.51238l35.09,0a0,0 0 0 1 0,0l0,28.07a17.54,17.54 0 0 1 -17.54,17.54l0,0a17.54,17.54 0 0 1 -17.54,-17.54l0,-28.07a0,0 0 0 1 -0.01,0z" opacity="0.1" id="svg_496" stroke="null"/>
                <path d="m3756.24039,4217.21238l28.39,0a3.35,3.35 0 0 1 3.35,3.35l0,24.72a17.54,17.54 0 0 1 -17.54,17.54l0,0a17.54,17.54 0 0 1 -17.54,-17.54l0,-24.72a3.35,3.35 0 0 1 3.35,-3.35l-0.01,0z" fill="#fda57d" id="svg_495" stroke="null"/>
                <path d="m3752.96039,4231.76238a50.5,50.5 0 0 0 35.09,0.1l0,-4.31l-35.09,0l0,4.21z" opacity="0.1" id="svg_494" stroke="null"/>
                <circle cx="3770.56039" cy="4183.82238" r="50.29" fill="#fda57d" id="svg_493" stroke="null"/>
                <circle cx="3770.49039" cy="4117.20238" r="20.24" fill="#f55f44" id="svg_492" stroke="null"/>
                <circle cx="3770.49039" cy="4097.27238" r="13.29" fill="#f55f44" id="svg_491" stroke="null"/>
                <path d="m3761.71039,4128.30238a20.24,20.24 0 0 1 -10.55,-25.88c-0.14,0.28 -0.28,0.57 -0.41,0.86a20.24,20.24 0 1 0 36.94,16.57c0.13,-0.29 0.25,-0.58 0.37,-0.88a20.24,20.24 0 0 1 -26.35,9.33z" fill="#f55f44" id="svg_490" stroke="null"/>
                <path d="m3734.75039,4138.08238s21.19,43 81,18l-13.92,-21.83l-24.67,-8.86l-42.41,12.69z" opacity="0.1" id="svg_489" stroke="null"/>
                <path d="m3734.75039,4137.44238s21.19,43 81,18l-13.92,-21.83l-24.67,-8.86l-42.41,12.69z" fill="#f55f44" id="svg_488" stroke="null"/>
                <path d="m3751.08039,4121.78238a249.85,249.85 0 0 1 39.18,0s-28.94,2.69 -39.18,0z" fill="#333" id="svg_487" stroke="null"/>
                <path d="m3773.53039,4083.17238a13.32,13.32 0 0 0 -3,0.23l0.77,0a13.28,13.28 0 0 1 2,26.33a13.28,13.28 0 0 0 0.24,-26.56l-0.01,0z" fill="#f55f44" id="svg_486" stroke="null"/>
                <ellipse cx="3720.26039" cy="4183.77238" rx="4.68" ry="8.77" fill="#fda57d" id="svg_485" stroke="null"/>
                <ellipse cx="3820.85039" cy="4183.77238" rx="4.68" ry="8.77" fill="#fda57d" id="svg_484" stroke="null"/>
                <polygon points="3731.5803222656255,4138.711914062498 3741.3903808593755,4133.652343749998 3743.6003417968755,4141.762207031248 3737.5903320312505,4145.852539062498 3731.5803222656255,4138.711914062498 " fill="#f55f44" id="svg_483" stroke="null"/>
                <g opacity="0.5" id="svg_480" stroke="null">
                    <circle cx="3772.33039" cy="4428.11238" r="115.89" fill="url(#svg_482)" id="svg_481" stroke="null"/>
                </g>
                <circle cx="3772.33039" cy="4427.48238" r="113.44" fill="#f5f5f5" id="svg_479" stroke="null"/>
                <path d="m3728.08039,4428.49238s-12.86,63.36 -19.88,59.85c0,0 67.7,58.48 127.48,0c0,0 -10.53,-44.65 -25.73,-59.85l-81.87,0z" fill="#bfbf00" id="svg_478" stroke="null"/>
                <path d="m3772.65039,4541.26238a112.91,112.91 0 0 0 62.36,-18.66c-4.18,-22.84 -20.09,-24.15 -20.09,-24.15l-87.72,0s-15,1.23 -19.7,22.25a112.92,112.92 0 0 0 65.15,20.56z" fill="#6c63ff" id="svg_477" stroke="null"/>
                <circle cx="3771.45039" cy="4424.98238" r="50.29" fill="#bfbf00" id="svg_476" stroke="null"/>
                <path d="m3753.78039,4470.59238l35.09,0a0,0 0 0 1 0,0l0,28.07a17.54,17.54 0 0 1 -17.51,17.54l0,0a17.54,17.54 0 0 1 -17.54,-17.54l0,-28.07a0,0 0 0 1 -0.04,0z" opacity="0.1" id="svg_475" stroke="null"/>
                <path d="m3757.13039,4469.29238l28.39,0a3.35,3.35 0 0 1 3.35,3.35l0,24.72a17.54,17.54 0 0 1 -17.51,17.54l0,0a17.54,17.54 0 0 1 -17.54,-17.54l0,-24.73a3.35,3.35 0 0 1 3.31,-3.34z" fill="#be7c5e" id="svg_474" stroke="null"/>
                <path d="m3753.85039,4483.84238a50.5,50.5 0 0 0 35.09,0.1l0,-4.31l-35.09,0l0,4.21z" opacity="0.1" id="svg_473" stroke="null"/>
                <circle cx="3771.45039" cy="4435.89238" r="50.29" fill="#be7c5e" id="svg_472" stroke="null"/>
                <path d="m3723.38039,4416.79238l95.9,0s-8.19,-38.72 -44.44,-36.25s-51.46,36.25 -51.46,36.25z" fill="#bfbf00" id="svg_471" stroke="null"/>
                <ellipse cx="3722.20039" cy="4433.75238" rx="4.68" ry="8.77" fill="#be7c5e" id="svg_470" stroke="null"/>
                <ellipse cx="3820.44039" cy="4433.75238" rx="4.68" ry="8.77" fill="#be7c5e" id="svg_469" stroke="null"/>
                <g opacity="0.5" id="svg_466" stroke="null">
                    <circle cx="3517.59039" cy="4434.60238" r="115.89" fill="url(#svg_468)" id="svg_467" stroke="null"/>
                </g>
                <circle cx="3517.81039" cy="4433.85238" r="113.44" fill="#f5f5f5" id="svg_465" stroke="null"/>
                <path d="m3517.91039,4547.75238a112.91,112.91 0 0 0 62.36,-18.66c-4.19,-22.85 -20.09,-24.16 -20.09,-24.16l-87.71,0s-15,1.23 -19.7,22.25a112.92,112.92 0 0 0 65.14,20.57z" fill="#6c63ff" id="svg_464" stroke="null"/>
                <circle cx="3516.72039" cy="4431.46238" r="54.76" fill="#72351c" id="svg_463" stroke="null"/>
                <path d="m3499.04039,4477.07238l35.09,0a0,0 0 0 1 0,0l0,28.07a17.54,17.54 0 0 1 -17.54,17.57l0,0a17.54,17.54 0 0 1 -17.54,-17.54l0,-28.1a0,0 0 0 1 -0.01,0z" opacity="0.1" id="svg_462" stroke="null"/>
                <path d="m3502.36039,4475.77238l28.39,0a3.35,3.35 0 0 1 3.35,3.35l0,24.72a17.54,17.54 0 0 1 -17.54,17.54l0,0a17.54,17.54 0 0 1 -17.54,-17.54l0,-24.72a3.35,3.35 0 0 1 3.35,-3.35l-0.01,0z" fill="#c6734f" id="svg_461" stroke="null"/>
                <path d="m3499.08039,4490.32238a50.5,50.5 0 0 0 35.09,0.1l0,-4.31l-35.09,0l0,4.21z" opacity="0.1" id="svg_460" stroke="null"/>
                <circle cx="3516.72039" cy="4442.38238" r="50.29" fill="#c6734f" id="svg_459" stroke="null"/>
                <path d="m3480.90039,4396.64238s21.19,43 81,18l-13.92,-21.83l-24.67,-8.86l-42.41,12.69z" opacity="0.1" id="svg_458" stroke="null"/>
                <path d="m3480.90039,4396.01238s21.19,43 81,18l-13.92,-21.83l-24.67,-8.86l-42.41,12.69z" fill="#72351c" id="svg_457" stroke="null"/>
                <path d="m3480.71039,4393.10238a29.05,29.05 0 0 1 7.2,-11.71c9.89,-9.78 26.11,-11.84 34.43,-23a6.51,6.51 0 0 1 -3,9.18c8,-0.05 17.21,-0.75 21.71,-7.31a14.91,14.91 0 0 1 -2.51,15.74c7.06,0.32 14.6,5.11 15.06,12.17c0.3,4.7 -2.64,9.15 -6.51,11.85s-8.53,3.91 -13.13,4.91c-13.42,3 -62.01,15.41 -53.25,-11.83z" fill="#72351c" id="svg_456" stroke="null"/>
                <path d="m3567.01039,4442.82238l-1.33,0l-25.94,23.11c-25,-11.7 -43.34,0 -43.34,0l-27.2,-22.14l-2.74,0.34a50.29,50.29 0 0 0 100.56,-1.29l-0.01,-0.02zm-50.36,31.95c-9.78,0 -17.71,-2 -17.71,-4.43s7.93,-4.43 17.71,-4.43s17.71,2 17.71,4.43s-7.93,4.43 -17.72,4.43l0.01,0z" fill="#72351c" id="svg_455" stroke="null"/>
                <ellipse cx="3466.41039" cy="4442.33238" rx="4.68" ry="8.77" fill="#c6734f" id="svg_454" stroke="null"/>
                <ellipse cx="3567.00039" cy="4442.33238" rx="4.68" ry="8.77" fill="#c6734f" id="svg_453" stroke="null"/>
                <g opacity="0.5" id="svg_450" stroke="null">
                    <circle cx="4036.25039" cy="4433.44238" r="115.89" fill="url(#svg_452)" id="svg_451" stroke="null"/>
                </g>
                <circle cx="4036.47039" cy="4432.70238" r="113.44" fill="#f5f5f5" id="svg_449" stroke="null"/>
                <path d="m4036.57039,4546.59238a112.91,112.91 0 0 0 62.35,-18.66c-4.18,-22.84 -20.09,-24.15 -20.09,-24.15l-87.75,0s-15,1.23 -19.7,22.25a112.92,112.92 0 0 0 65.19,20.56z" fill="#6c63ff" id="svg_448" stroke="null"/>
                <circle cx="4035.37039" cy="4430.31238" r="54.76" fill="#56ffaa" id="svg_447" stroke="null"/>
                <path d="m4017.70039,4475.92238l35.09,0a0,0 0 0 1 0,0l0,28.07a17.54,17.54 0 0 1 -17.54,17.54l0,0a17.54,17.54 0 0 1 -17.54,-17.54l0,-28.07a0,0 0 0 1 -0.01,0z" opacity="0.1" id="svg_446" stroke="null"/>
                <path d="m4021.05039,4474.62238l28.39,0a3.35,3.35 0 0 1 3.35,3.35l0,24.74a17.54,17.54 0 0 1 -17.54,17.54l0,0a17.54,17.54 0 0 1 -17.55,-17.54l0,-24.75a3.35,3.35 0 0 1 3.35,-3.35l0,0.01z" fill="#fdb797" id="svg_445" stroke="null"/>
                <path d="m4017.77039,4489.17238a50.5,50.5 0 0 0 35.09,0.1l0,-4.34l-35.09,0l0,4.24z" opacity="0.1" id="svg_444" stroke="null"/>
                <circle cx="4035.37039" cy="4441.23238" r="50.29" fill="#fdb797" id="svg_443" stroke="null"/>
                <path d="m3999.56039,4395.48238s21.19,43 81,18l-13.92,-21.83l-24.67,-8.86l-42.41,12.69z" opacity="0.1" id="svg_442" stroke="null"/>
                <path d="m3999.56039,4394.85238s21.19,43 81,18l-13.92,-21.83l-24.67,-8.86l-42.41,12.69z" fill="#56ffaa" id="svg_441" stroke="null"/>
                <path d="m3999.37039,4391.93238a29.05,29.05 0 0 1 7.2,-11.71c9.89,-9.78 26.11,-11.84 34.43,-23a6.51,6.51 0 0 1 -3,9.18c8,-0.05 17.21,-0.75 21.71,-7.31a14.91,14.91 0 0 1 -2.51,15.74c7.06,0.32 14.6,5.11 15.06,12.17c0.3,4.7 -2.64,9.15 -6.51,11.85s-8.54,3.93 -13.14,4.95c-13.42,2.98 -62,15.39 -53.24,-11.87z" fill="#56ffaa" id="svg_440" stroke="null"/>
                <ellipse cx="3985.06039" cy="4441.18238" rx="4.68" ry="8.77" fill="#fdb797" id="svg_439" stroke="null"/>
                <ellipse cx="4085.65039" cy="4441.18238" rx="4.68" ry="8.77" fill="#fdb797" id="svg_438" stroke="null"/>
                <g opacity="0.5" id="svg_435" stroke="null">
                    <circle cx="3516.91039" cy="4179.29238" r="115.89" fill="url(#svg_437)" id="svg_436" stroke="null"/>
                </g>
                <circle cx="3516.91039" cy="4178.66238" r="113.44" fill="#f5f5f5" id="svg_434" stroke="null"/>
                <path d="m3517.23039,4292.44238a112.91,112.91 0 0 0 62.36,-18.66c-4.18,-22.84 -20.09,-24.15 -20.09,-24.15l-87.72,0s-15,1.23 -19.7,22.25a112.92,112.92 0 0 0 65.15,20.56z" fill="#6c63ff" id="svg_433" stroke="null"/>
                <path d="m3498.36039,4221.77238l35.09,0a0,0 0 0 1 0,0l0,28.07a17.54,17.54 0 0 1 -17.54,17.54l0,0a17.54,17.54 0 0 1 -17.55,-17.54l0,-28.07a0,0 0 0 1 0,0z" opacity="0.1" id="svg_432" stroke="null"/>
                <path d="m3501.71039,4220.47238l28.39,0a3.35,3.35 0 0 1 3.35,3.35l0,24.72a17.54,17.54 0 0 1 -17.54,17.54l0,0a17.54,17.54 0 0 1 -17.55,-17.54l0,-24.72a3.35,3.35 0 0 1 3.35,-3.35z" fill="#fdb797" id="svg_431" stroke="null"/>
                <path d="m3498.43039,4235.02238a50.5,50.5 0 0 0 35.09,0.1l0,-4.31l-35.09,0l0,4.21z" opacity="0.1" id="svg_430" stroke="null"/>
                <circle cx="3516.03039" cy="4187.08238" r="50.29" fill="#fdb797" id="svg_429" stroke="null"/>
                <ellipse cx="3466.78039" cy="4184.93238" rx="4.68" ry="8.77" fill="#fdb797" id="svg_428" stroke="null"/>
                <ellipse cx="3565.02039" cy="4184.93238" rx="4.68" ry="8.77" fill="#fdb797" id="svg_427" stroke="null"/>
                <rect x="3485.39039" y="4187.32238" width="21.51" height="10.76" rx="4.35" ry="4.35" fill="none" stroke-miterlimit="10" stroke-width="2" id="svg_426" stroke="#333"/>
                <rect x="5844.88043" y="5369.85238" width="21.51" height="10.76" rx="4.35" ry="4.35" transform="rotate(180 5855.63525390625,5375.232421875) " fill="none" stroke-miterlimit="10" stroke-width="2" id="svg_425" stroke="#333"/>
                <path d="m3506.08039,4188.36238s6.82,-3.7 19.5,0" fill="none" stroke-miterlimit="10" stroke-width="2" id="svg_424" stroke="#333"/>
                <path d="m3550.80039,4150.63238l12.34,28.67s15.09,-19.02 -12.34,-28.67z" fill="#000000" id="svg_423" stroke="null"/>
                <line x1="3546.68039" y1="4192.70238" x2="3565.10039" y2="4176.25238" fill="none" stroke-linecap="round" stroke-linejoin="round" stroke-width="2" id="svg_422" stroke="#333"/>
                <path d="m3481.28039,4150.63238l-12.34,28.67s-15.09,-19.02 12.34,-28.67z" fill="#000000" id="svg_421" stroke="null"/>
                <line x1="3485.39039" y1="4192.70238" x2="3466.72039" y2="4176.25238" fill="none" stroke-linecap="round" stroke-linejoin="round" stroke-width="2" id="svg_420" stroke="#333"/>
                <g opacity="0.5" id="svg_417" stroke="null">
                    <circle cx="4046.08039" cy="4176.97238" r="115.89" fill="url(#svg_419)" id="svg_418" stroke="null"/>
                </g>
                <circle cx="4046.08039" cy="4176.34238" r="113.44" fill="#f5f5f5" id="svg_416" stroke="null"/>
                <path d="m4108.83039,4186.54238c0,41.78 -27.26,88.29 -60.89,88.29s-60.86,-46.51 -60.86,-88.29s27.26,-63 60.89,-63s60.86,21.23 60.86,63z" fill="#fdd835" id="svg_415" stroke="null"/>
                <path d="m4046.40039,4290.13238a112.91,112.91 0 0 0 62.36,-18.66c-4.18,-22.84 -20.09,-24.15 -20.09,-24.15l-87.71,0s-15,1.23 -19.7,22.25a112.92,112.92 0 0 0 65.14,20.56z" fill="#6c63ff" id="svg_414" stroke="null"/>
                <path d="m4027.54039,4219.45238l35.09,0a0,0 0 0 1 0,0l0,28.07a17.54,17.54 0 0 1 -17.54,17.54l0,0a17.54,17.54 0 0 1 -17.54,-17.54l0,-28.07a0,0 0 0 1 -0.01,0z" opacity="0.1" id="svg_413" stroke="null"/>
                <path d="m4030.89039,4218.15238l28.39,0a3.35,3.35 0 0 1 3.35,3.35l0,24.72a17.54,17.54 0 0 1 -17.54,17.54l0,0a17.54,17.54 0 0 1 -17.54,-17.54l0,-24.72a3.35,3.35 0 0 1 3.34,-3.35z" fill="#fdb797" id="svg_412" stroke="null"/>
                <path d="m4027.61039,4232.70238a50.5,50.5 0 0 0 35.09,0.1l0,-4.31l-35.09,0l0,4.21z" opacity="0.1" id="svg_411" stroke="null"/>
                <circle cx="4045.21039" cy="4184.76238" r="50.29" fill="#fdb797" id="svg_410" stroke="null"/>
                <ellipse cx="3995.96039" cy="4182.61238" rx="4.68" ry="8.77" fill="#fdb797" id="svg_409" stroke="null"/>
                <ellipse cx="4094.20039" cy="4182.61238" rx="4.68" ry="8.77" fill="#fdb797" id="svg_408" stroke="null"/>
                <path d="m4000.65039,4157.48238s28.43,38.91 93.63,25.62c0,0 7.28,-8.86 -10.44,-36.06s-67.06,-22.77 -83.19,10.44z" opacity="0.1" id="svg_407" stroke="null"/>
                <path d="m4000.65039,4156.85238s28.43,38.91 93.63,25.62c0,0 7.28,-8.86 -10.44,-36.06s-67.06,-22.77 -83.19,10.44z" fill="#fdd835" id="svg_406" stroke="null"/>
                <g opacity="0.5" id="svg_403" stroke="null">
                    <circle cx="3775.39039" cy="4676.26238" r="115.89" fill="url(#svg_405)" id="svg_404" stroke="null"/>
                </g>
                <circle cx="3775.62039" cy="4675.52238" r="113.44" fill="#f5f5f5" id="svg_402" stroke="null"/>
                <path d="m3838.03039,4686.70238c0,37.74 -27.11,56.31 -62.32,56.31s-65.16,-18.57 -65.16,-56.31s28.54,-68.33 63.74,-68.33s63.74,30.56 63.74,68.33z" fill="#333" id="svg_401" stroke="null"/>
                <path d="m3775.71039,4789.41238a112.91,112.91 0 0 0 62.37,-18.66c-4.18,-22.84 -20.09,-24.15 -20.09,-24.15l-87.72,0s-15,1.23 -19.7,22.25a112.92,112.92 0 0 0 65.14,20.56z" fill="#6c63ff" id="svg_400" stroke="null"/>
                <path d="m3756.85039,4718.71238l35.09,0a0,0 0 0 1 0,0l0,28.07a17.54,17.54 0 0 1 -17.58,17.57l0,0a17.54,17.54 0 0 1 -17.54,-17.54l0,-28.1a0,0 0 0 1 0.03,0z" opacity="0.1" id="svg_399" stroke="null"/>
                <path d="m3760.19039,4717.44238l28.39,0a3.35,3.35 0 0 1 3.35,3.35l0,24.72a17.54,17.54 0 0 1 -17.57,17.54l0,0a17.54,17.54 0 0 1 -17.54,-17.54l0,-24.73a3.35,3.35 0 0 1 3.35,-3.35l0.02,0.01z" fill="#ffb596" id="svg_398" stroke="null"/>
                <path d="m3756.92039,4731.99238a50.5,50.5 0 0 0 35.09,0.1l0,-4.31l-35.09,0l0,4.21z" opacity="0.1" id="svg_397" stroke="null"/>
                <circle cx="3774.52039" cy="4684.04238" r="50.29" fill="#ffb596" id="svg_396" stroke="null"/>
                <path d="m3716.56039,4687.33238s31.32,-3.8 55,-34.16c0,0 31.32,34.48 53.14,30.68c0,0 12.65,-13.29 0,-26.57s-22.46,-30.05 -39.22,-27.84s-37.33,3.16 -46.18,11.07s-22.74,46.82 -22.74,46.82z" opacity="0.1" id="svg_395" stroke="null"/>
                <path d="m3716.56039,4686.70238s31.32,-3.8 55,-34.16c0,0 31.32,34.48 53.14,30.68c0,0 12.65,-13.29 0,-26.57s-22.46,-30.05 -39.22,-27.84s-37.29,3.12 -46.14,11.12s-22.78,46.77 -22.78,46.77z" fill="#333" id="svg_394" stroke="null"/>
                <ellipse cx="3724.21039" cy="4684.00238" rx="4.68" ry="8.77" fill="#ffb596" id="svg_393" stroke="null"/>
                <ellipse cx="3824.80039" cy="4684.00238" rx="4.68" ry="8.77" fill="#ffb596" id="svg_392" stroke="null"/>
                <rect x="3524.39039" y="4186.32238" width="21.51" height="10.76" rx="4.35" ry="4.35" fill="none" stroke-miterlimit="10" stroke-width="2" id="svg_391" stroke="#333"/>
            </g>
        </g>

        <g id="svg_774" stroke="null">
            <g id="svg_772" transform="matrix(0.20627788488758086,0,0,0.20404881043097195,-849.0255037877359,-668.2238731384132) " stroke="null">
                <title transform="translate(0,-1.8189894035458565e-12) translate(0,0.00003450652729952708) translate(0,-908.6243286132812) ">background</title>
                <rect fill="none" id="svg_770" height="602" width="802" y="4024.72215" x="6166.68115" stroke="null"/>
            </g>
            <g id="svg_773" transform="matrix(0.20627788488758086,0,0,0.20404881043097195,-849.0255037877359,-668.2238731384132) " stroke="null">
                <title transform="translate(0,-1.8189894035458565e-12) translate(0,0.00003450652729952708) translate(0,-908.6243286132812) ">Layer 1</title>
                <g id="svg_767" opacity="0.5" stroke="null">
                    <circle id="svg_768" fill="url(#svg_769)" r="115.89" cy="4402.12215" cx="6290.65115" stroke="null"/>
                </g>
                <circle id="svg_766" fill="#f5f5f5" r="113.44" cy="4401.49215" cx="6290.65115" stroke="null"/>
                <path id="svg_765" fill="#333" d="m6246.40115,4402.50215s-12.86,63.36 -19.88,59.85c0,0 67.7,58.48 127.48,0c0,0 -10.53,-44.65 -25.73,-59.85l-81.87,0z" stroke="null"/>
                <path id="svg_764" fill="#6c63ff" d="m6290.97115,4515.27215a112.91,112.91 0 0 0 62.36,-18.66c-4.18,-22.84 -20.09,-24.15 -20.09,-24.15l-87.72,0s-15,1.23 -19.7,22.25a112.92,112.92 0 0 0 65.15,20.56z" stroke="null"/>
                <circle id="svg_763" fill="#333" r="50.29" cy="4398.99215" cx="6289.77115" stroke="null"/>
                <path id="svg_762" opacity="0.1" d="m6272.10115,4444.60215l35.09,0a0,0 0 0 1 0,0l0,28.07a17.54,17.54 0 0 1 -17.51,17.54l0,0a17.54,17.54 0 0 1 -17.54,-17.54l0,-28.07a0,0 0 0 1 -0.04,0z" stroke="null"/>
                <path id="svg_761" fill="#be7c5e" d="m6275.45115,4443.30215l28.39,0a3.35,3.35 0 0 1 3.35,3.35l0,24.72a17.54,17.54 0 0 1 -17.51,17.54l0,0a17.54,17.54 0 0 1 -17.54,-17.54l0,-24.73a3.35,3.35 0 0 1 3.31,-3.34z" stroke="null"/>
                <path id="svg_760" opacity="0.1" d="m6272.17115,4457.85215a50.5,50.5 0 0 0 35.09,0.1l0,-4.31l-35.09,0l0,4.21z" stroke="null"/>
                <circle id="svg_759" fill="#be7c5e" r="50.29" cy="4409.90215" cx="6289.77115" stroke="null"/>
                <path id="svg_758" fill="#333" d="m6241.70115,4390.80215l95.9,0s-8.19,-38.72 -44.44,-36.25s-51.46,36.25 -51.46,36.25z" stroke="null"/>
                <ellipse id="svg_757" fill="#be7c5e" ry="8.77" rx="4.68" cy="4407.76215" cx="6240.52115" stroke="null"/>
                <ellipse id="svg_756" fill="#be7c5e" ry="8.77" rx="4.68" cy="4407.76215" cx="6338.76115" stroke="null"/>
                <path id="svg_755" opacity="0.1" d="m6241.70115,4392.10215l95.9,0s-8.19,-38.72 -44.44,-36.25s-51.46,36.25 -51.46,36.25z" stroke="null"/>
                <g id="svg_752" opacity="0.5" stroke="null">
                    <circle id="svg_753" fill="url(#svg_754)" r="115.89" cy="4141.61215" cx="6828.91115" stroke="null"/>
                </g>
                <circle id="svg_751" fill="#f5f5f5" r="113.44" cy="4140.86215" cx="6829.13115" stroke="null"/>
                <path id="svg_750" fill="#6c63ff" d="m6829.23115,4254.76215a112.91,112.91 0 0 0 62.36,-18.66c-4.19,-22.85 -20.09,-24.16 -20.09,-24.16l-87.71,0s-15,1.23 -19.7,22.25a112.92,112.92 0 0 0 65.14,20.57z" stroke="null"/>
                <circle id="svg_749" fill="#72351c" r="54.76" cy="4138.47215" cx="6828.04115" stroke="null"/>
                <path id="svg_748" opacity="0.1" d="m6810.36115,4184.08215l35.09,0a0,0 0 0 1 0,0l0,28.07a17.54,17.54 0 0 1 -17.54,17.57l0,0a17.54,17.54 0 0 1 -17.54,-17.54l0,-28.1a0,0 0 0 1 -0.01,0z" stroke="null"/>
                <path id="svg_747" fill="#fda57d" d="m6813.68115,4182.78215l28.39,0a3.35,3.35 0 0 1 3.35,3.35l0,24.72a17.54,17.54 0 0 1 -17.54,17.54l0,0a17.54,17.54 0 0 1 -17.54,-17.54l0,-24.72a3.35,3.35 0 0 1 3.35,-3.35l-0.01,0z" stroke="null"/>
                <path id="svg_746" opacity="0.1" d="m6810.40115,4197.33215a50.5,50.5 0 0 0 35.09,0.1l0,-4.31l-35.09,0l0,4.21z" stroke="null"/>
                <circle id="svg_745" fill="#fda57d" r="50.29" cy="4149.39215" cx="6828.04115" stroke="null"/>
                <path id="svg_744" opacity="0.1" d="m6792.22115,4103.65215s21.19,43 81,18l-13.92,-21.83l-24.67,-8.86l-42.41,12.69z" stroke="null"/>
                <path id="svg_743" fill="#72351c" d="m6792.22115,4103.02215s21.19,43 81,18l-13.92,-21.83l-24.67,-8.86l-42.41,12.69z" stroke="null"/>
                <path id="svg_742" fill="#72351c" d="m6792.03115,4100.11215a29.05,29.05 0 0 1 7.2,-11.71c9.89,-9.78 26.11,-11.84 34.43,-23a6.51,6.51 0 0 1 -3,9.18c8,-0.05 17.21,-0.75 21.71,-7.31a14.91,14.91 0 0 1 -2.51,15.74c7.06,0.32 14.6,5.11 15.06,12.17c0.3,4.7 -2.64,9.15 -6.51,11.85s-8.53,3.91 -13.13,4.91c-13.42,3 -62.01,15.41 -53.25,-11.83z" stroke="null"/>
                <path id="svg_741" fill="#72351c" d="m6878.33115,4149.83215l-1.33,0l-25.94,23.11c-25,-11.7 -43.34,0 -43.34,0l-27.2,-22.14l-2.74,0.34a50.29,50.29 0 0 0 100.56,-1.29l-0.01,-0.02zm-50.36,31.95c-9.78,0 -17.71,-2 -17.71,-4.43s7.93,-4.43 17.71,-4.43s17.71,2 17.71,4.43s-7.93,4.43 -17.72,4.43l0.01,0z" stroke="null"/>
                <ellipse id="svg_740" fill="#fda57d" ry="8.77" rx="4.68" cy="4149.34215" cx="6777.73115" stroke="null"/>
                <ellipse id="svg_739" fill="#fda57d" ry="8.77" rx="4.68" cy="4149.34215" cx="6878.32115" stroke="null"/>
                <rect id="svg_738" stroke-width="2" stroke-miterlimit="10" fill="none" transform="rotate(180 8639.9560546875,5348.241699218751) " ry="4.35" rx="4.35" height="10.76" width="21.51" y="5342.86215" x="8629.20119" stroke="#333"/>
                <g id="svg_735" opacity="0.5" stroke="null">
                    <circle id="svg_736" fill="url(#svg_737)" r="115.89" cy="4395.98215" cx="6545.40115" stroke="null"/>
                </g>
                <circle id="svg_734" fill="#f5f5f5" r="113.44" cy="4395.35215" cx="6545.40115" stroke="null"/>
                <path id="svg_733" fill="#fdd835" d="m6608.15115,4405.55215c0,41.78 -27.26,88.29 -60.89,88.29s-60.86,-46.51 -60.86,-88.29s27.26,-63 60.89,-63s60.86,21.23 60.86,63z" stroke="null"/>
                <path id="svg_732" fill="#6c63ff" d="m6545.72115,4509.14215a112.91,112.91 0 0 0 62.36,-18.66c-4.18,-22.84 -20.09,-24.15 -20.09,-24.15l-87.71,0s-15,1.23 -19.7,22.25a112.92,112.92 0 0 0 65.14,20.56z" stroke="null"/>
                <path id="svg_731" opacity="0.1" d="m6526.86115,4438.46215l35.09,0a0,0 0 0 1 0,0l0,28.07a17.54,17.54 0 0 1 -17.54,17.54l0,0a17.54,17.54 0 0 1 -17.54,-17.54l0,-28.07a0,0 0 0 1 -0.01,0z" stroke="null"/>
                <path id="svg_730" fill="#fdb797" d="m6530.21115,4437.16215l28.39,0a3.35,3.35 0 0 1 3.35,3.35l0,24.72a17.54,17.54 0 0 1 -17.54,17.54l0,0a17.54,17.54 0 0 1 -17.54,-17.54l0,-24.72a3.35,3.35 0 0 1 3.34,-3.35z" stroke="null"/>
                <path id="svg_729" opacity="0.1" d="m6526.93115,4451.71215a50.5,50.5 0 0 0 35.09,0.1l0,-4.31l-35.09,0l0,4.21z" stroke="null"/>
                <circle id="svg_728" fill="#fdb797" r="50.29" cy="4403.77215" cx="6544.53115" stroke="null"/>
                <ellipse id="svg_727" fill="#fdb797" ry="8.77" rx="4.68" cy="4401.62215" cx="6495.28115" stroke="null"/>
                <ellipse id="svg_726" fill="#fdb797" ry="8.77" rx="4.68" cy="4401.62215" cx="6593.52115" stroke="null"/>
                <path id="svg_725" opacity="0.1" d="m6499.97115,4376.49215s28.43,38.91 93.63,25.62c0,0 7.28,-8.86 -10.44,-36.06s-67.06,-22.77 -83.19,10.44z" stroke="null"/>
                <path id="svg_724" fill="#fdd835" d="m6499.97115,4375.86215s28.43,38.91 93.63,25.62c0,0 7.28,-8.86 -10.44,-36.06s-67.06,-22.77 -83.19,10.44z" stroke="null"/>
                <g id="svg_722" opacity="0.5" stroke="null">
                    <circle id="svg_723" fill="url(#svg_698)" r="115.89" cy="4157.27215" cx="6287.71115" stroke="null"/>
                </g>
                <circle id="svg_721" fill="#f5f5f5" r="113.44" cy="4156.53215" cx="6287.94115" stroke="null"/>
                <path id="svg_720" fill="#333" d="m6350.35115,4167.71215c0,37.74 -27.11,56.31 -62.32,56.31s-65.16,-18.57 -65.16,-56.31s28.54,-68.33 63.74,-68.33s63.74,30.56 63.74,68.33z" stroke="null"/>
                <path id="svg_719" fill="#6c63ff" d="m6288.03115,4270.42215a112.91,112.91 0 0 0 62.37,-18.66c-4.18,-22.84 -20.09,-24.15 -20.09,-24.15l-87.72,0s-15,1.23 -19.7,22.25a112.92,112.92 0 0 0 65.14,20.56z" stroke="null"/>
                <path id="svg_718" opacity="0.1" d="m6269.17115,4199.72215l35.09,0a0,0 0 0 1 0,0l0,28.07a17.54,17.54 0 0 1 -17.58,17.57l0,0a17.54,17.54 0 0 1 -17.54,-17.54l0,-28.1a0,0 0 0 1 0.03,0z" stroke="null"/>
                <path id="svg_717" fill="#fda57d" d="m6272.51115,4198.45215l28.39,0a3.35,3.35 0 0 1 3.35,3.35l0,24.72a17.54,17.54 0 0 1 -17.57,17.54l0,0a17.54,17.54 0 0 1 -17.54,-17.54l0,-24.73a3.35,3.35 0 0 1 3.35,-3.35l0.02,0.01z" stroke="null"/>
                <path id="svg_716" opacity="0.1" d="m6269.24115,4213.00215a50.5,50.5 0 0 0 35.09,0.1l0,-4.31l-35.09,0l0,4.21z" stroke="null"/>
                <circle id="svg_715" fill="#fda57d" r="50.29" cy="4165.05215" cx="6286.84115" stroke="null"/>
                <path id="svg_714" opacity="0.1" d="m6228.88115,4168.34215s31.32,-3.8 55,-34.16c0,0 31.32,34.48 53.14,30.68c0,0 12.65,-13.29 0,-26.57s-22.46,-30.05 -39.22,-27.84s-37.33,3.16 -46.18,11.07s-22.74,46.82 -22.74,46.82z" stroke="null"/>
                <path id="svg_713" fill="#333" d="m6228.88115,4167.71215s31.32,-3.8 55,-34.16c0,0 31.32,34.48 53.14,30.68c0,0 12.65,-13.29 0,-26.57s-22.46,-30.05 -39.22,-27.84s-37.29,3.12 -46.14,11.12s-22.78,46.77 -22.78,46.77z" stroke="null"/>
                <ellipse id="svg_712" fill="#fda57d" ry="8.77" rx="4.68" cy="4165.01215" cx="6236.53115" stroke="null"/>
                <ellipse id="svg_711" fill="#fda57d" ry="8.77" rx="4.68" cy="4165.01215" cx="6337.12115" stroke="null"/>
                <g id="svg_709" opacity="0.5" stroke="null">
                    <circle id="svg_710" fill="url(#svg_698)" r="115.89" cy="4647.27215" cx="6542.71115" stroke="null"/>
                </g>
                <circle id="svg_708" fill="#f5f5f5" r="113.44" cy="4646.53215" cx="6542.94115" stroke="null"/>
                <path id="svg_707" fill="#6c63ff" d="m6543.03115,4760.42215a112.91,112.91 0 0 0 62.37,-18.66c-4.18,-22.84 -20.09,-24.15 -20.09,-24.15l-87.72,0s-15,1.23 -19.7,22.25a112.92,112.92 0 0 0 65.14,20.56z" stroke="null"/>
                <path id="svg_706" opacity="0.1" d="m6524.17115,4689.72215l35.09,0a0,0 0 0 1 0,0l0,28.07a17.54,17.54 0 0 1 -17.58,17.57l0,0a17.54,17.54 0 0 1 -17.54,-17.54l0,-28.1a0,0 0 0 1 0.03,0z" stroke="null"/>
                <path id="svg_705" fill="#fda57d" d="m6527.51115,4688.45215l28.39,0a3.35,3.35 0 0 1 3.35,3.35l0,24.72a17.54,17.54 0 0 1 -17.57,17.54l0,0a17.54,17.54 0 0 1 -17.54,-17.54l0,-24.73a3.35,3.35 0 0 1 3.35,-3.35l0.02,0.01z" stroke="null"/>
                <path id="svg_704" opacity="0.1" d="m6524.24115,4703.00215a50.5,50.5 0 0 0 35.09,0.1l0,-4.31l-35.09,0l0,4.21z" stroke="null"/>
                <circle id="svg_703" fill="#fda57d" r="50.29" cy="4655.05215" cx="6541.84115" stroke="null"/>
                <path id="svg_702" opacity="0.1" d="m6483.88115,4658.34215s31.32,-3.8 55,-34.16c0,0 31.32,34.48 53.14,30.68c0,0 12.65,-13.29 0,-26.57s-22.46,-30.05 -39.22,-27.84s-37.33,3.16 -46.18,11.07s-22.74,46.82 -22.74,46.82z" stroke="null"/>
                <path id="svg_701" fill="#007f3f" d="m6483.88115,4657.71215s31.32,-3.8 55,-34.16c0,0 31.32,34.48 53.14,30.68c0,0 12.65,-13.29 0,-26.57s-22.46,-30.05 -39.22,-27.84s-37.29,3.12 -46.14,11.12s-22.78,46.77 -22.78,46.77z" stroke="null"/>
                <ellipse id="svg_700" fill="#fda57d" ry="8.77" rx="4.68" cy="4655.01215" cx="6491.53115" stroke="null"/>
                <ellipse id="svg_699" fill="#fda57d" ry="8.77" rx="4.68" cy="4655.01215" cx="6592.12115" stroke="null"/>
                <g id="svg_696" opacity="0.5" stroke="null">
                    <circle id="svg_697" fill="url(#svg_698)" r="115.89" cy="4648.27215" cx="6823.71115" stroke="null"/>
                </g>
                <circle id="svg_695" fill="#f5f5f5" r="113.44" cy="4647.53215" cx="6823.94115" stroke="null"/>
                <path id="svg_694" fill="#ff00ff" d="m6886.35115,4658.71215c0,37.74 -27.11,56.31 -62.32,56.31s-65.16,-18.57 -65.16,-56.31s28.54,-68.33 63.74,-68.33s63.74,30.56 63.74,68.33z" stroke="null"/>
                <path id="svg_693" fill="#6c63ff" d="m6824.03115,4761.42215a112.91,112.91 0 0 0 62.37,-18.66c-4.18,-22.84 -20.09,-24.15 -20.09,-24.15l-87.72,0s-15,1.23 -19.7,22.25a112.92,112.92 0 0 0 65.14,20.56z" stroke="null"/>
                <path id="svg_692" opacity="0.1" d="m6805.17115,4690.72215l35.09,0a0,0 0 0 1 0,0l0,28.07a17.54,17.54 0 0 1 -17.58,17.57l0,0a17.54,17.54 0 0 1 -17.54,-17.54l0,-28.1a0,0 0 0 1 0.03,0z" stroke="null"/>
                <path id="svg_691" fill="#fda57d" d="m6808.51115,4689.45215l28.39,0a3.35,3.35 0 0 1 3.35,3.35l0,24.72a17.54,17.54 0 0 1 -17.57,17.54l0,0a17.54,17.54 0 0 1 -17.54,-17.54l0,-24.73a3.35,3.35 0 0 1 3.35,-3.35l0.02,0.01z" stroke="null"/>
                <path id="svg_690" opacity="0.1" d="m6805.24115,4704.00215a50.5,50.5 0 0 0 35.09,0.1l0,-4.31l-35.09,0l0,4.21z" stroke="null"/>
                <circle id="svg_689" fill="#fda57d" r="50.29" cy="4656.05215" cx="6822.84115" stroke="null"/>
                <ellipse id="svg_688" fill="#fda57d" ry="8.77" rx="4.68" cy="4656.01215" cx="6772.53115" stroke="null"/>
                <ellipse id="svg_687" fill="#fda57d" ry="8.77" rx="4.68" cy="4656.01215" cx="6873.12115" stroke="null"/>
                <g id="svg_684" opacity="0.5" stroke="null">
                    <circle id="svg_685" fill="url(#svg_686)" r="115.89" cy="4153.45215" cx="6564.57115" stroke="null"/>
                </g>
                <circle id="svg_683" fill="#f5f5f5" r="113.44" cy="4152.71215" cx="6564.79115" stroke="null"/>
                <path id="svg_682" fill="#6c63ff" d="m6564.89115,4266.60215a112.91,112.91 0 0 0 62.35,-18.66c-4.18,-22.84 -20.09,-24.15 -20.09,-24.15l-87.75,0s-15,1.23 -19.7,22.25a112.92,112.92 0 0 0 65.19,20.56z" stroke="null"/>
                <circle id="svg_681" fill="#7f3f00" r="54.76" cy="4150.32215" cx="6563.69115" stroke="null"/>
                <path id="svg_680" opacity="0.1" d="m6546.02115,4195.93215l35.09,0a0,0 0 0 1 0,0l0,28.07a17.54,17.54 0 0 1 -17.54,17.54l0,0a17.54,17.54 0 0 1 -17.54,-17.54l0,-28.07a0,0 0 0 1 -0.01,0z" stroke="null"/>
                <path id="svg_679" fill="#fdb797" d="m6549.37115,4194.63215l28.39,0a3.35,3.35 0 0 1 3.35,3.35l0,24.74a17.54,17.54 0 0 1 -17.54,17.54l0,0a17.54,17.54 0 0 1 -17.55,-17.54l0,-24.75a3.35,3.35 0 0 1 3.35,-3.35l0,0.01z" stroke="null"/>
                <path id="svg_678" opacity="0.1" d="m6546.09115,4209.18215a50.5,50.5 0 0 0 35.09,0.1l0,-4.34l-35.09,0l0,4.24z" stroke="null"/>
                <circle id="svg_677" fill="#fdb797" r="50.29" cy="4161.24215" cx="6563.69115" stroke="null"/>
                <path id="svg_676" opacity="0.1" d="m6527.88115,4115.49215s21.19,43 81,18l-13.92,-21.83l-24.67,-8.86l-42.41,12.69z" stroke="null"/>
                <path id="svg_675" fill="#7f3f00" d="m6527.88115,4114.86215s21.19,43 81,18l-13.92,-21.83l-24.67,-8.86l-42.41,12.69z" stroke="null"/>
                <path id="svg_674" fill="#7f3f00" d="m6527.69115,4111.94215a29.05,29.05 0 0 1 7.2,-11.71c9.89,-9.78 26.11,-11.84 34.43,-23a6.51,6.51 0 0 1 -3,9.18c8,-0.05 17.21,-0.75 21.71,-7.31a14.91,14.91 0 0 1 -2.51,15.74c7.06,0.32 14.6,5.11 15.06,12.17c0.3,4.7 -2.64,9.15 -6.51,11.85s-8.54,3.93 -13.14,4.95c-13.42,2.98 -62,15.39 -53.24,-11.87z" stroke="null"/>
                <ellipse id="svg_673" fill="#fdb797" ry="8.77" rx="4.68" cy="4161.19215" cx="6513.38115" stroke="null"/>
                <ellipse id="svg_672" fill="#fdb797" ry="8.77" rx="4.68" cy="4161.19215" cx="6613.97115" stroke="null"/>
                <g id="svg_669" opacity="0.5" stroke="null">
                    <circle id="svg_670" fill="url(#svg_671)" r="115.89" cy="4398.81215" cx="6819.40115" stroke="null"/>
                </g>
                <circle id="svg_668" fill="#f5f5f5" r="113.44" cy="4398.18215" cx="6819.40115" stroke="null"/>
                <path id="svg_667" fill="#6c63ff" d="m6819.72115,4511.94215a112.91,112.91 0 0 0 62.36,-18.66c-4.18,-22.84 -20.09,-24.15 -20.09,-24.15l-87.71,0s-15,1.23 -19.7,22.25a112.92,112.92 0 0 0 65.14,20.56z" stroke="null"/>
                <circle id="svg_666" fill="#000000" r="50.29" cy="4395.68215" cx="6818.53115" stroke="null"/>
                <path id="svg_665" opacity="0.1" d="m6800.86115,4441.29215l35.09,0a0,0 0 0 1 0,0l0,28.07a17.54,17.54 0 0 1 -17.54,17.54l0,0a17.54,17.54 0 0 1 -17.54,-17.54l0,-28.07a0,0 0 0 1 -0.01,0z" stroke="null"/>
                <path id="svg_664" fill="#be7c5e" d="m6804.21115,4439.99215l28.39,0a3.35,3.35 0 0 1 3.35,3.35l0,24.72a17.54,17.54 0 0 1 -17.54,17.54l0,0a17.54,17.54 0 0 1 -17.54,-17.54l0,-24.72a3.35,3.35 0 0 1 3.34,-3.35z" stroke="null"/>
                <path id="svg_663" opacity="0.1" d="m6800.93115,4454.54215a50.5,50.5 0 0 0 35.09,0.1l0,-4.31l-35.09,0l0,4.21z" stroke="null"/>
                <circle id="svg_662" fill="#be7c5e" r="50.29" cy="4406.60215" cx="6818.53115" stroke="null"/>
                <ellipse id="svg_661" fill="#be7c5e" ry="8.77" rx="4.68" cy="4404.77215" cx="6782.75115" stroke="null"/>
                <g id="svg_658" opacity="0.5" stroke="null">
                    <circle id="svg_659" fill="url(#svg_660)" r="115.89" cy="4649.04215" cx="6290.76115" stroke="null"/>
                </g>
                <circle id="svg_657" fill="#f5f5f5" r="113.44" cy="4648.30215" cx="6290.98115" stroke="null"/>
                <path id="svg_656" fill="#6c63ff" d="m6291.08115,4762.19215a112.91,112.91 0 0 0 62.32,-18.66c-4.18,-22.84 -20.09,-24.15 -20.09,-24.15l-87.68,0s-15,1.23 -19.7,22.25a112.92,112.92 0 0 0 65.15,20.56z" stroke="null"/>
                <circle id="svg_655" fill="#bf5f00" r="54.76" cy="4645.91215" cx="6289.88115" stroke="null"/>
                <path id="svg_654" opacity="0.1" d="m6272.21115,4691.52215l35.09,0a0,0 0 0 1 0,0l0,28.07a17.54,17.54 0 0 1 -17.54,17.54l0,0a17.54,17.54 0 0 1 -17.54,-17.54l0,-28.07a0,0 0 0 1 -0.01,0z" stroke="null"/>
                <path id="svg_653" fill="#fda57d" d="m6275.56115,4690.22215l28.39,0a3.35,3.35 0 0 1 3.35,3.35l0,24.72a17.54,17.54 0 0 1 -17.54,17.54l0,0a17.54,17.54 0 0 1 -17.54,-17.54l0,-24.72a3.35,3.35 0 0 1 3.35,-3.35l-0.01,0z" stroke="null"/>
                <path id="svg_652" opacity="0.1" d="m6272.28115,4704.77215a50.5,50.5 0 0 0 35.09,0.1l0,-4.31l-35.09,0l0,4.21z" stroke="null"/>
                <circle id="svg_651" fill="#fda57d" r="50.29" cy="4656.83215" cx="6289.88115" stroke="null"/>
                <circle id="svg_650" fill="#bf5f00" r="20.24" cy="4590.21215" cx="6289.81115" stroke="null"/>
                <circle id="svg_649" fill="#bf5f00" r="13.29" cy="4570.28215" cx="6289.81115" stroke="null"/>
                <path id="svg_648" fill="#bf5f00" d="m6281.03115,4601.31215a20.24,20.24 0 0 1 -10.55,-25.88c-0.14,0.28 -0.28,0.57 -0.41,0.86a20.24,20.24 0 1 0 36.94,16.57c0.13,-0.29 0.25,-0.58 0.37,-0.88a20.24,20.24 0 0 1 -26.35,9.33z" stroke="null"/>
                <path id="svg_647" opacity="0.1" d="m6254.07115,4611.09215s21.19,43 81,18l-13.92,-21.83l-24.67,-8.86l-42.41,12.69z" stroke="null"/>
                <path id="svg_646" fill="#bf5f00" d="m6254.07115,4610.45215s21.19,43 81,18l-13.92,-21.83l-24.67,-8.86l-42.41,12.69z" stroke="null"/>
                <path id="svg_645" fill="#0000bf" d="m6270.40115,4594.79215a249.85,249.85 0 0 1 39.18,0s-28.94,2.69 -39.18,0z" stroke="null"/>
                <path id="svg_644" fill="#bf5f00" d="m6292.85115,4556.18215a13.32,13.32 0 0 0 -3,0.23l0.77,0a13.28,13.28 0 0 1 2,26.33a13.28,13.28 0 0 0 0.24,-26.56l-0.01,0z" stroke="null"/>
                <ellipse id="svg_643" fill="#fda57d" ry="8.77" rx="4.68" cy="4656.78215" cx="6239.58115" stroke="null"/>
                <ellipse id="svg_642" fill="#fda57d" ry="8.77" rx="4.68" cy="4656.78215" cx="6340.17115" stroke="null"/>
                <polygon id="svg_641" fill="#bf5f00" points="6250.9013671875,4611.722167968748 6260.7109375,4606.661621093748 6262.9208984375,4614.771972656248 6256.9111328125,4618.862304687498 6250.9013671875,4611.722167968748 " stroke="null"/>
            </g>
        </g>
    </g>
</svg>